<svg width="21" height="19" viewBox="0 0 21 19" fill="none" xmlns="http://www.w3.org/2000/svg">
<path d="M2.33333 1.16669C1.04635 1.16669 0 2.21304 0 3.50002V15.1667C0 16.4537 1.04635 17.5 2.33333 17.5H18.6667C19.9536 17.5 21 16.4537 21 15.1667V3.50002C21 2.21304 19.9536 1.16669 18.6667 1.16669H2.33333ZM5.25 10.5H7.58333C9.19479 10.5 10.5 11.8052 10.5 13.4167C10.5 13.7375 10.2375 14 9.91667 14H2.91667C2.59583 14 2.33333 13.7375 2.33333 13.4167C2.33333 11.8052 3.63854 10.5 5.25 10.5ZM4.08333 7.00002C4.08333 6.38118 4.32917 5.78769 4.76675 5.3501C5.20434 4.91252 5.79783 4.66669 6.41667 4.66669C7.0355 4.66669 7.629 4.91252 8.06658 5.3501C8.50417 5.78769 8.75 6.38118 8.75 7.00002C8.75 7.61886 8.50417 8.21235 8.06658 8.64994C7.629 9.08752 7.0355 9.33335 6.41667 9.33335C5.79783 9.33335 5.20434 9.08752 4.76675 8.64994C4.32917 8.21235 4.08333 7.61886 4.08333 7.00002ZM13.4167 5.83335H18.0833C18.4042 5.83335 18.6667 6.09585 18.6667 6.41669C18.6667 6.73752 18.4042 7.00002 18.0833 7.00002H13.4167C13.0958 7.00002 12.8333 6.73752 12.8333 6.41669C12.8333 6.09585 13.0958 5.83335 13.4167 5.83335ZM13.4167 8.16669H18.0833C18.4042 8.16669 18.6667 8.42919 18.6667 8.75002C18.6667 9.07085 18.4042 9.33335 18.0833 9.33335H13.4167C13.0958 9.33335 12.8333 9.07085 12.8333 8.75002C12.8333 8.42919 13.0958 8.16669 13.4167 8.16669ZM13.4167 10.5H18.0833C18.4042 10.5 18.6667 10.7625 18.6667 11.0834C18.6667 11.4042 18.4042 11.6667 18.0833 11.6667H13.4167C13.0958 11.6667 12.8333 11.4042 12.8333 11.0834C12.8333 10.7625 13.0958 10.5 13.4167 10.5Z" fill="#00ABD5"/>
</svg>
