<svg width="21" height="24" viewBox="0 0 21 24" fill="none" xmlns="http://www.w3.org/2000/svg">
<g clip-path="url(#clip0_104_9)">
<path d="M4.05 0.255664L2.89687 2.21266C2.71875 2.5148 2.625 2.86344 2.625 3.21672V3.34687C2.625 4.37418 3.46406 5.20625 4.5 5.20625C5.53594 5.20625 6.375 4.37418 6.375 3.34687V3.21672C6.375 2.86344 6.28125 2.51945 6.10312 2.21266L4.95 0.255664C4.85625 0.0976172 4.6875 0 4.5 0C4.3125 0 4.14375 0.0976172 4.05 0.255664ZM10.05 0.255664L8.89687 2.21266C8.71875 2.5148 8.625 2.86344 8.625 3.21672V3.34687C8.625 4.37418 9.46406 5.20625 10.5 5.20625C11.5359 5.20625 12.375 4.37418 12.375 3.34687V3.21672C12.375 2.86344 12.2812 2.51945 12.1031 2.21266L10.95 0.255664C10.8562 0.0976172 10.6875 0 10.5 0C10.3125 0 10.1437 0.0976172 10.05 0.255664ZM14.8969 2.21266C14.7187 2.5148 14.625 2.86344 14.625 3.21672V3.34687C14.625 4.37418 15.4641 5.20625 16.5 5.20625C17.5359 5.20625 18.375 4.37418 18.375 3.34687V3.21672C18.375 2.86344 18.2812 2.51945 18.1031 2.21266L16.95 0.255664C16.8562 0.0976172 16.6875 0 16.5 0C16.3125 0 16.1437 0.0976172 16.05 0.255664L14.8969 2.21266ZM6 8.18125C6 7.35848 5.32969 6.69375 4.5 6.69375C3.67031 6.69375 3 7.35848 3 8.18125V10.4125C1.34531 10.4125 0 11.7466 0 13.3875V16.6879C0.389062 16.9296 0.848437 17.1062 1.35 17.1062C1.98281 17.1062 2.625 16.8227 3.15 16.4834C3.40312 16.3207 3.61406 16.1533 3.75937 16.0325C3.82969 15.972 3.88594 15.9209 3.92344 15.8884C3.94219 15.8698 3.95625 15.8605 3.96094 15.8512L3.96562 15.8465C4.11094 15.6978 4.3125 15.6187 4.52344 15.6234C4.73437 15.628 4.92656 15.721 5.06719 15.8744L5.07187 15.8791C5.07656 15.8837 5.09062 15.8977 5.10469 15.9116C5.1375 15.9441 5.18437 15.9906 5.25 16.0511C5.38125 16.1719 5.56875 16.3346 5.80312 16.4927C6.28125 16.8227 6.88125 17.1016 7.50469 17.1016C8.12812 17.1016 8.72812 16.8227 9.20625 16.4927C9.44062 16.33 9.62812 16.1719 9.75937 16.0511C9.825 15.9906 9.87187 15.9441 9.90469 15.9116C9.91875 15.8977 9.93281 15.8837 9.9375 15.8791L9.94219 15.8744C10.0828 15.7117 10.2891 15.6234 10.5047 15.6234C10.7203 15.6234 10.9266 15.7164 11.0672 15.8744L11.0719 15.8791C11.0766 15.8837 11.0906 15.8977 11.1047 15.9116C11.1375 15.9441 11.1844 15.9906 11.25 16.0511C11.3812 16.1719 11.5687 16.3346 11.8031 16.4927C12.2812 16.8227 12.8812 17.1016 13.5047 17.1016C14.1281 17.1016 14.7281 16.8227 15.2062 16.4927C15.4406 16.33 15.6281 16.1719 15.7594 16.0511C15.825 15.9906 15.8719 15.9441 15.9047 15.9116C15.9187 15.8977 15.9328 15.8837 15.9375 15.8791L15.9422 15.8744C16.0781 15.7164 16.275 15.628 16.4859 15.6234C16.6969 15.6187 16.8937 15.6978 17.0437 15.8465L17.0484 15.8512C17.0578 15.8605 17.0672 15.8698 17.0859 15.8884C17.1234 15.9209 17.175 15.972 17.25 16.0325C17.3953 16.1533 17.6016 16.3207 17.8594 16.4834C18.3844 16.8227 19.0266 17.1062 19.6594 17.1062C20.1609 17.1062 20.6203 16.925 21.0094 16.6879V13.3875C21.0094 11.7466 19.6641 10.4125 18.0094 10.4125V8.18125C18.0094 7.35848 17.3391 6.69375 16.5094 6.69375C15.6797 6.69375 15.0094 7.35848 15.0094 8.18125V10.4125H12V8.18125C12 7.35848 11.3297 6.69375 10.5 6.69375C9.67031 6.69375 9 7.35848 9 8.18125V10.4125H6V8.18125ZM21 18.3427C20.6016 18.4961 20.1469 18.5938 19.65 18.5938C18.5953 18.5938 17.6625 18.1336 17.0344 17.7291C16.8422 17.6036 16.6687 17.4781 16.5234 17.3666C16.3922 17.4781 16.2375 17.599 16.0641 17.7152C15.4594 18.1289 14.5594 18.5938 13.5 18.5938C12.4406 18.5938 11.5406 18.1289 10.9406 17.7152C10.7766 17.6036 10.6266 17.4874 10.5 17.3805C10.3734 17.4874 10.2234 17.599 10.0594 17.7152C9.45937 18.1289 8.55937 18.5938 7.5 18.5938C6.44062 18.5938 5.54062 18.1289 4.94062 17.7152C4.76719 17.5943 4.6125 17.4735 4.48125 17.3666C4.33594 17.4781 4.1625 17.6036 3.97031 17.7291C3.3375 18.1336 2.40469 18.5938 1.35 18.5938C0.853125 18.5938 0.398437 18.4915 0 18.3427V22.3125C0 23.1353 0.670312 23.8 1.5 23.8H19.5C20.3297 23.8 21 23.1353 21 22.3125V18.3427Z" fill="#00ADB5"/>
</g>
<defs>
<clipPath id="clip0_104_9">
<rect width="21" height="23.8" fill="white"/>
</clipPath>
</defs>
</svg>
