<svg width="103" height="118" viewBox="0 0 103 118" fill="none" xmlns="http://www.w3.org/2000/svg">
<g clip-path="url(#clip0_100_9)">
<path d="M51.5 59C59.3049 59 66.7902 55.892 72.3091 50.3596C77.8281 44.8273 80.9286 37.3239 80.9286 29.5C80.9286 21.6761 77.8281 14.1727 72.3091 8.64035C66.7902 3.10803 59.3049 0 51.5 0C43.6951 0 36.2098 3.10803 30.6909 8.64035C25.1719 14.1727 22.0714 21.6761 22.0714 29.5C22.0714 37.3239 25.1719 44.8273 30.6909 50.3596C36.2098 55.892 43.6951 59 51.5 59ZM40.9931 70.0625C18.3469 70.0625 0 88.4539 0 111.155C0 114.935 3.05781 118 6.82835 118H96.1716C99.9422 118 103 114.935 103 111.155C103 88.4539 84.6531 70.0625 62.0069 70.0625H40.9931Z" fill="white"/>
</g>
<defs>
<clipPath id="clip0_100_9">
<rect width="103" height="118" fill="white"/>
</clipPath>
</defs>
</svg>
