<svg width="53" height="61" viewBox="0 0 53 61" fill="none" xmlns="http://www.w3.org/2000/svg">
<g clip-path="url(#clip0_67_23)">
<path d="M26.9166 30.2263C30.8522 30.2263 34.6266 28.6376 37.4095 25.8098C40.1924 22.9819 41.7558 19.1466 41.7558 15.1474C41.7558 11.1482 40.1924 7.31279 37.4095 4.48494C34.6266 1.65709 30.8522 0.0684204 26.9166 0.0684204C22.981 0.0684204 19.2066 1.65709 16.4237 4.48494C13.6408 7.31279 12.0774 11.1482 12.0774 15.1474C12.0774 19.1466 13.6408 22.9819 16.4237 25.8098C19.2066 28.6376 22.981 30.2263 26.9166 30.2263ZM21.6186 35.8809C10.1993 35.8809 0.948029 45.2817 0.948029 56.8854C0.948029 58.8174 2.48991 60.3842 4.39118 60.3842H49.442C51.3433 60.3842 52.8852 58.8174 52.8852 56.8854C52.8852 45.2817 43.6339 35.8809 32.2147 35.8809H21.6186Z" fill="white"/>
</g>
<defs>
<clipPath id="clip0_67_23">
<rect width="51.9372" height="60.3158" fill="white" transform="translate(0.948029 0.0684204)"/>
</clipPath>
</defs>
</svg>
