<svg width="70" height="54" viewBox="0 0 70 54" fill="none" xmlns="http://www.w3.org/2000/svg">
<path d="M57.1302 24.3949C57.1302 24.3949 58.0538 28.3184 58.2604 29.141H54.2014C54.6024 28.2023 56.1458 24.5531 56.1458 24.5531C56.1215 24.5848 56.5469 23.5934 56.7899 22.9816L57.1302 24.3949ZM70 8.4375V45.5625C70 48.3574 67.3872 50.625 64.1667 50.625H5.83333C2.61285 50.625 0 48.3574 0 45.5625V8.4375C0 5.64258 2.61285 3.375 5.83333 3.375H64.1667C67.3872 3.375 70 5.64258 70 8.4375ZM18.533 34.9313L26.2135 18.5625H21.0486L16.2726 29.7422L15.75 27.4746L14.0486 19.9441C13.7691 18.9 12.9062 18.6047 11.8368 18.5625H3.97396L3.88889 18.8895C5.80903 19.3113 7.52257 19.923 9.01736 20.693L13.3681 34.9313H18.533ZM30.0052 34.9523L33.0677 18.5625H28.1823L25.1319 34.9523H30.0052ZM47.0069 29.5945C47.0312 27.7277 45.7188 26.3039 42.9115 25.1332C41.1979 24.3844 40.1528 23.8781 40.1528 23.1082C40.1771 22.4121 41.0399 21.6949 42.9601 21.6949C44.5521 21.6633 45.7188 21.9902 46.5938 22.3172L47.0312 22.4965L47.6997 18.9527C46.7396 18.6258 45.2083 18.2566 43.3247 18.2566C38.5 18.2566 35.1094 20.4926 35.0851 23.6777C35.0486 26.0297 37.5156 27.3375 39.3628 28.1285C41.2465 28.9301 41.8906 29.4574 41.8906 30.1641C41.8663 31.2609 40.3594 31.7672 38.9618 31.7672C37.0174 31.7672 35.9722 31.5035 34.3802 30.8918L33.7361 30.6281L33.0556 34.309C34.1979 34.7625 36.3125 35.1633 38.5 35.1844C43.6285 35.1949 46.9705 32.9906 47.0069 29.5945ZM64.1667 34.9523L60.2292 18.5625H56.4497C55.283 18.5625 54.3958 18.8578 53.8976 19.923L46.6424 34.9523H51.7708C51.7708 34.9523 52.6094 32.9273 52.7917 32.4949H59.0625C59.2083 33.075 59.6458 34.9523 59.6458 34.9523H64.1667Z" fill="#00ABD5"/>
</svg>
