<svg width="16" height="16" viewBox="0 0 16 16" fill="none" xmlns="http://www.w3.org/2000/svg">
<g clip-path="url(#clip0_53_8)">
<path d="M0 8C0 10.1217 0.842855 12.1566 2.34315 13.6569C3.84344 15.1571 5.87827 16 8 16C10.1217 16 12.1566 15.1571 13.6569 13.6569C15.1571 12.1566 16 10.1217 16 8C16 5.87827 15.1571 3.84344 13.6569 2.34315C12.1566 0.842855 10.1217 0 8 0C5.87827 0 3.84344 0.842855 2.34315 2.34315C0.842855 3.84344 0 5.87827 0 8ZM9.20625 4.22188L12.3281 7.56875C12.4375 7.6875 12.5 7.84062 12.5 8C12.5 8.15938 12.4375 8.31562 12.3281 8.43125L9.20625 11.7781C9.075 11.9187 8.89062 12 8.69687 12C8.3125 12 8 11.6875 8 11.3031V9.5H5C4.44688 9.5 4 9.05313 4 8.5V7.5C4 6.94688 4.44688 6.5 5 6.5H8V4.69688C8 4.3125 8.3125 4 8.69687 4C8.89062 4 9.075 4.08125 9.20625 4.22188Z" fill="#1A82E2"/>
</g>
<defs>
<clipPath id="clip0_53_8">
<rect width="16" height="16" fill="white"/>
</clipPath>
</defs>
</svg>
