<svg width="38" height="34" viewBox="0 0 38 34" fill="none" xmlns="http://www.w3.org/2000/svg">
<path d="M33.7778 5.3125C34.3583 5.3125 34.8333 5.79063 34.8333 6.375V8.5H3.16667V6.375C3.16667 5.79063 3.64167 5.3125 4.22222 5.3125H33.7778ZM34.8333 14.875V27.625C34.8333 28.2094 34.3583 28.6875 33.7778 28.6875H4.22222C3.64167 28.6875 3.16667 28.2094 3.16667 27.625V14.875H34.8333ZM4.22222 2.125C1.8934 2.125 0 4.03086 0 6.375V27.625C0 29.9691 1.8934 31.875 4.22222 31.875H33.7778C36.1066 31.875 38 29.9691 38 27.625V6.375C38 4.03086 36.1066 2.125 33.7778 2.125H4.22222ZM7.91667 22.3125C7.03924 22.3125 6.33333 23.023 6.33333 23.9062C6.33333 24.7895 7.03924 25.5 7.91667 25.5H11.0833C11.9608 25.5 12.6667 24.7895 12.6667 23.9062C12.6667 23.023 11.9608 22.3125 11.0833 22.3125H7.91667ZM16.3611 22.3125C15.4837 22.3125 14.7778 23.023 14.7778 23.9062C14.7778 24.7895 15.4837 25.5 16.3611 25.5H23.75C24.6274 25.5 25.3333 24.7895 25.3333 23.9062C25.3333 23.023 24.6274 22.3125 23.75 22.3125H16.3611Z" fill="#00ADB5"/>
</svg>
