<svg width="25" height="25" viewBox="0 0 25 25" fill="none" xmlns="http://www.w3.org/2000/svg">
<g clip-path="url(#clip0_118_8)">
<path d="M23.0273 1.05957C21.958 -0.00976565 20.2295 -0.00976565 19.1602 1.05957L17.6904 2.52441L22.4707 7.30469L23.9404 5.83496C25.0098 4.76562 25.0098 3.03711 23.9404 1.96777L23.0273 1.05957ZM8.41797 11.8018C8.12012 12.0996 7.89062 12.4658 7.75879 12.8711L6.31348 17.207C6.17188 17.627 6.28418 18.0908 6.59668 18.4082C6.90918 18.7256 7.37305 18.833 7.79785 18.6914L12.1338 17.2461C12.5342 17.1143 12.9004 16.8848 13.2031 16.5869L21.3721 8.41309L16.5869 3.62793L8.41797 11.8018ZM4.6875 3.125C2.09961 3.125 0 5.22461 0 7.8125V20.3125C0 22.9004 2.09961 25 4.6875 25H17.1875C19.7754 25 21.875 22.9004 21.875 20.3125V15.625C21.875 14.7607 21.1768 14.0625 20.3125 14.0625C19.4482 14.0625 18.75 14.7607 18.75 15.625V20.3125C18.75 21.1768 18.0518 21.875 17.1875 21.875H4.6875C3.82324 21.875 3.125 21.1768 3.125 20.3125V7.8125C3.125 6.94824 3.82324 6.25 4.6875 6.25H9.375C10.2393 6.25 10.9375 5.55176 10.9375 4.6875C10.9375 3.82324 10.2393 3.125 9.375 3.125H4.6875Z" fill="#00ABD5"/>
</g>
<defs>
<clipPath id="clip0_118_8">
<rect width="25" height="25" fill="white"/>
</clipPath>
</defs>
</svg>
