<svg width="21" height="21" viewBox="0 0 21 21" fill="none" xmlns="http://www.w3.org/2000/svg">
<path d="M1.96875 2.625C0.881836 2.625 0 3.50684 0 4.59375C0 5.21309 0.291211 5.79551 0.7875 6.16875L9.7125 12.8625C10.1801 13.2111 10.8199 13.2111 11.2875 12.8625L20.2125 6.16875C20.7088 5.79551 21 5.21309 21 4.59375C21 3.50684 20.1182 2.625 19.0312 2.625H1.96875ZM0 7.21875V15.75C0 17.1979 1.17715 18.375 2.625 18.375H18.375C19.8229 18.375 21 17.1979 21 15.75V7.21875L12.075 13.9125C11.1398 14.6139 9.86016 14.6139 8.925 13.9125L0 7.21875Z" fill="#00ADB5"/>
</svg>
