<svg width="46" height="46" viewBox="0 0 46 46" fill="none" xmlns="http://www.w3.org/2000/svg">
<g clip-path="url(#clip0_52_21)">
<path d="M33.3075 21.3212C31.1042 21.7431 28.7602 21.0048 27.0569 19.0888L24.0801 15.7402C22.9081 14.4218 22.2518 12.6464 22.2518 10.7831V9.71967L16.0247 5.89642C15.6106 5.64154 15.3528 5.14056 15.3762 4.60443C15.3997 4.0683 15.681 3.59369 16.1185 3.37396L19.8063 1.52826C21.2439 0.816345 22.7988 0.447205 24.377 0.447205H25.7912C28.6586 0.447205 31.4167 1.67767 33.5028 3.88373L36.9875 7.57513C38.8783 9.57904 39.5815 12.4706 39.0658 15.1337L40.3003 16.5312L40.9253 15.8281C41.6598 15.0019 42.8474 15.0019 43.574 15.8281L45.4492 17.9374C46.1836 18.7636 46.1836 20.0995 45.4492 20.9169L38.5736 28.6513C37.8391 29.4775 36.6515 29.4775 35.9249 28.6513L34.0497 26.5419C33.3153 25.7158 33.3153 24.3798 34.0497 23.5624L34.6748 22.8593L33.3075 21.3212ZM3.14081 33.5908L21.3846 16.496C21.658 16.9267 21.9706 17.3398 22.3065 17.7265L25.2834 21.0751C25.7521 21.6025 26.2522 22.0595 26.7835 22.455L11.54 43.039C10.4071 44.5683 8.72723 45.4472 6.96145 45.4472C3.66429 45.4472 1 42.4413 1 38.7411C1 36.7548 1.78913 34.8652 3.14081 33.5908Z" fill="white"/>
</g>
<defs>
<clipPath id="clip0_52_21">
<rect width="45.4348" height="45.4348" fill="white" transform="translate(0.546234 0.447205)"/>
</clipPath>
</defs>
</svg>
