<svg width="21" height="17" viewBox="0 0 21 17" fill="none" xmlns="http://www.w3.org/2000/svg">
<path d="M10.6116 2.7956L7.43531 5.3681C6.90703 5.79466 6.80531 6.56248 7.20563 7.11044C7.62891 7.69451 8.4525 7.80935 9.02016 7.36638L12.2784 4.83326C12.5081 4.65607 12.8362 4.69544 13.0167 4.92513C13.1972 5.15482 13.1545 5.48294 12.9248 5.66341L12.2391 6.19498L16.8 10.395V4.19998H16.777L16.6491 4.11794L14.2669 2.59216C13.7648 2.2706 13.1775 2.09998 12.5803 2.09998C11.865 2.09998 11.1694 2.34607 10.6116 2.7956ZM11.3597 6.87748L9.66328 8.19654C8.62969 9.00373 7.13016 8.79373 6.35578 7.7306C5.62734 6.72982 5.81109 5.33201 6.7725 4.55435L9.5025 2.34607C9.12187 2.18529 8.71172 2.10326 8.295 2.10326C7.67812 2.09998 7.07766 2.28373 6.5625 2.62498L4.2 4.19998V11.55H5.12531L8.12437 14.2865C8.7675 14.8739 9.76172 14.8279 10.3491 14.1848C10.5295 13.9847 10.6509 13.7517 10.7133 13.5089L11.2711 14.0208C11.9109 14.6081 12.9084 14.5654 13.4958 13.9256C13.6434 13.7648 13.7517 13.5778 13.8206 13.3842C14.4572 13.8108 15.3234 13.7222 15.8583 13.1381C16.4456 12.4983 16.403 11.5008 15.7631 10.9134L11.3597 6.87748ZM0.525 4.19998C0.23625 4.19998 0 4.43623 0 4.72498V11.55C0 12.1308 0.469219 12.6 1.05 12.6H2.1C2.68078 12.6 3.15 12.1308 3.15 11.55V4.19998H0.525ZM1.575 10.5C1.71424 10.5 1.84777 10.5553 1.94623 10.6537C2.04469 10.7522 2.1 10.8857 2.1 11.025C2.1 11.1642 2.04469 11.2978 1.94623 11.3962C1.84777 11.4947 1.71424 11.55 1.575 11.55C1.43576 11.55 1.30223 11.4947 1.20377 11.3962C1.10531 11.2978 1.05 11.1642 1.05 11.025C1.05 10.8857 1.10531 10.7522 1.20377 10.6537C1.30223 10.5553 1.43576 10.5 1.575 10.5ZM17.85 4.19998V11.55C17.85 12.1308 18.3192 12.6 18.9 12.6H19.95C20.5308 12.6 21 12.1308 21 11.55V4.72498C21 4.43623 20.7637 4.19998 20.475 4.19998H17.85ZM18.9 11.025C18.9 10.8857 18.9553 10.7522 19.0538 10.6537C19.1522 10.5553 19.2858 10.5 19.425 10.5C19.5642 10.5 19.6978 10.5553 19.7962 10.6537C19.8947 10.7522 19.95 10.8857 19.95 11.025C19.95 11.1642 19.8947 11.2978 19.7962 11.3962C19.6978 11.4947 19.5642 11.55 19.425 11.55C19.2858 11.55 19.1522 11.4947 19.0538 11.3962C18.9553 11.2978 18.9 11.1642 18.9 11.025Z" fill="#00ADB5"/>
</svg>
