<svg width="175" height="175" viewBox="0 0 175 175" fill="none" xmlns="http://www.w3.org/2000/svg">
<path d="M26.8734 1.71305C23.6265 -0.816185 19.0125 -0.508575 16.0733 2.39663L2.40213 16.0682C-0.502982 18.9734 -0.810582 23.5875 1.6844 26.8687L29.0266 62.4148C30.5646 64.4313 32.9913 65.6276 35.5204 65.6276H54.0106L91.2644 102.883C86.2403 112.794 87.8466 125.236 96.1518 133.507L134.431 171.787C138.703 176.06 145.641 176.06 149.914 171.787L171.787 149.913C176.06 145.64 176.06 138.702 171.787 134.43L133.508 96.1493C125.237 87.878 112.796 86.2374 102.885 91.2617L65.6311 54.0067V35.5502C65.6311 32.9867 64.4348 30.5942 62.4183 29.0562L26.8734 1.71305ZM6.81107 135.387C2.47049 139.727 0.00968528 145.64 0.00968528 151.793C0.00968528 164.61 10.3997 175 23.2164 175C29.3684 175 35.2812 172.539 39.6218 168.198L79.8832 127.936C77.2173 120.792 76.8072 113.034 78.6528 105.685L57.5651 84.5969L6.81107 135.387ZM175 49.2217C175 45.6329 174.624 42.1467 173.906 38.7971C173.086 34.9691 168.404 33.9779 165.635 36.7464L143.796 58.5867C142.77 59.6121 141.369 60.1931 139.934 60.1931H120.316C117.308 60.1931 114.847 57.7323 114.847 54.7245V35.0716C114.847 33.6361 115.428 32.2348 116.453 31.2094L138.293 9.36912C141.061 6.60063 140.07 1.91813 136.242 1.09783C132.859 0.380076 129.373 0.00410869 125.784 0.00410869C98.6126 0.00410869 76.568 22.0495 76.568 49.2217V49.4951L105.722 78.6497C118.026 75.5395 131.628 78.8206 141.267 88.4591L146.632 93.8251C163.38 85.964 175 68.9429 175 49.2217ZM19.1493 147.657C19.1493 145.481 20.0135 143.395 21.5518 141.857C23.0901 140.318 25.1764 139.454 27.3519 139.454C29.5274 139.454 31.6138 140.318 33.1521 141.857C34.6904 143.395 35.5546 145.481 35.5546 147.657C35.5546 149.832 34.6904 151.919 33.1521 153.457C31.6138 154.996 29.5274 155.86 27.3519 155.86C25.1764 155.86 23.0901 154.996 21.5518 153.457C20.0135 151.919 19.1493 149.832 19.1493 147.657Z" fill="#EEEEEE"/>
</svg>
