<svg width="45" height="46" viewBox="0 0 45 46" fill="none" xmlns="http://www.w3.org/2000/svg">
<g clip-path="url(#clip0_52_2)">
<path d="M0 6.32068C0 3.21814 2.52246 0.695679 5.625 0.695679H30.9375C34.04 0.695679 36.5625 3.21814 36.5625 6.32068V11.9457C36.5625 15.0482 34.04 17.5707 30.9375 17.5707H5.625C2.52246 17.5707 0 15.0482 0 11.9457V6.32068ZM14.0625 31.6332C14.0625 30.0775 15.3193 28.8207 16.875 28.8207V27.4144C16.875 23.5297 20.0215 20.3832 23.9062 20.3832H36.5625C38.1182 20.3832 39.375 19.1263 39.375 17.5707V14.7582V6.80408C42.6533 7.96423 45 11.0844 45 14.7582V17.5707C45 22.2289 41.2207 26.0082 36.5625 26.0082H23.9062C23.1328 26.0082 22.5 26.641 22.5 27.4144V28.8207C24.0557 28.8207 25.3125 30.0775 25.3125 31.6332V42.8832C25.3125 44.4388 24.0557 45.6957 22.5 45.6957H16.875C15.3193 45.6957 14.0625 44.4388 14.0625 42.8832V31.6332Z" fill="white"/>
</g>
<defs>
<clipPath id="clip0_52_2">
<rect width="45" height="45" fill="white" transform="translate(0 0.695679)"/>
</clipPath>
</defs>
</svg>
