<svg width="71" height="74" viewBox="0 0 71 74" fill="none" xmlns="http://www.w3.org/2000/svg">
<path d="M17.3951 32.8606L17.5282 32.375L17.7501 32.0975L18.0163 31.7737C18.2027 31.5709 18.4266 31.4095 18.6744 31.2992C18.9223 31.1889 19.189 31.132 19.4585 31.132C19.728 31.132 19.9947 31.1889 20.2426 31.2992C20.4904 31.4095 20.7143 31.5709 20.9007 31.7737L21.1669 32.0975L21.3444 32.4675C21.354 32.6061 21.354 32.7452 21.3444 32.8838C21.3645 33.0217 21.3645 33.162 21.3444 33.3C21.3515 33.5763 21.3062 33.8513 21.2113 34.1094C21.1077 34.3683 20.957 34.6039 20.7676 34.8031C20.5818 35.0075 20.3543 35.1655 20.1019 35.2656C19.8475 35.3704 19.5767 35.4253 19.3032 35.4275H18.9038L18.5044 35.2888L18.1494 35.1038C18.0683 34.9763 18.0083 34.8356 17.9719 34.6875C17.7759 34.4939 17.6242 34.2568 17.5282 33.9937C17.4257 33.7373 17.3729 33.4622 17.3729 33.1844C17.3743 33.0761 17.3817 32.968 17.3951 32.8606Z" fill="white"/>
<path d="M13.3125 24.3275L13.4456 23.9113L13.6231 23.5413L13.8894 23.125C14.0758 22.9221 14.2996 22.7607 14.5475 22.6504C14.7953 22.5401 15.062 22.4833 15.3315 22.4833C15.601 22.4833 15.8678 22.5401 16.1156 22.6504C16.3635 22.7607 16.5873 22.9221 16.7737 23.125L17.04 23.4488L17.2175 23.8188C17.227 23.9573 17.227 24.0964 17.2175 24.235C17.2376 24.373 17.2376 24.5133 17.2175 24.6513C17.2245 24.9275 17.1793 25.2026 17.0844 25.4606C16.9808 25.7196 16.8301 25.9551 16.6406 26.1544C16.4549 26.3587 16.2274 26.5168 15.975 26.6169C15.7206 26.7217 15.4498 26.7766 15.1762 26.7788H14.7769L14.3775 26.64L14.0225 26.455C13.9056 26.38 13.8008 26.2864 13.7119 26.1775C13.5158 25.9839 13.3641 25.7468 13.2681 25.4838C13.2408 25.2363 13.2558 24.9857 13.3125 24.7438C13.3026 24.6052 13.3026 24.4661 13.3125 24.3275Z" fill="white"/>
<path d="M23.541 13.6437L23.6741 13.2275L23.8516 12.8575L24.1179 12.5337C24.3043 12.3309 24.5281 12.1694 24.776 12.0592C25.0239 11.9489 25.2906 11.892 25.5601 11.892C25.8296 11.892 26.0963 11.9489 26.3441 12.0592C26.592 12.1694 26.8158 12.3309 27.0022 12.5337L27.2685 12.8575L27.446 13.2275C27.4555 13.3661 27.4555 13.5052 27.446 13.6437C27.4661 13.7817 27.4661 13.922 27.446 14.06C27.453 14.3363 27.4078 14.6113 27.3129 14.8694C27.2093 15.1283 27.0586 15.3639 26.8691 15.5631C26.6834 15.7674 26.4559 15.9255 26.2035 16.0256C25.9491 16.1304 25.6783 16.1853 25.4047 16.1875H25.0054L24.606 16.0487L24.4063 15.8406C24.2895 15.7657 24.1846 15.672 24.0957 15.5631C23.8996 15.3696 23.748 15.1324 23.6519 14.8694C23.5494 14.6129 23.4966 14.3378 23.4966 14.06C23.5015 13.9203 23.5163 13.7812 23.541 13.6437Z" fill="white"/>
<path d="M31.7503 22.1769L31.8834 21.7606L32.0609 21.3906L32.3271 21.0669C32.5135 20.864 32.7374 20.7026 32.9853 20.5923C33.2331 20.482 33.4998 20.4251 33.7693 20.4251C34.0388 20.4251 34.3055 20.482 34.5534 20.5923C34.8012 20.7026 35.0251 20.864 35.2115 21.0669L35.4999 21.4137L35.6774 21.7837C35.687 21.9223 35.687 22.0614 35.6774 22.2C35.6975 22.338 35.6975 22.4783 35.6774 22.6162C35.6845 22.8925 35.6393 23.1676 35.5443 23.4256C35.4407 23.6845 35.29 23.9201 35.1006 24.1194C34.9148 24.3237 34.6873 24.4818 34.4349 24.5819C34.1805 24.6867 33.9097 24.7416 33.6362 24.7437H33.2368L32.8374 24.605L32.4824 24.42C32.3656 24.345 32.2608 24.2514 32.1718 24.1425C31.9758 23.9489 31.8241 23.7118 31.7281 23.4487C31.6255 23.1923 31.5728 22.9172 31.5728 22.6394C31.6187 22.4801 31.6781 22.3253 31.7503 22.1769Z" fill="white"/>
<path d="M44.0421 13.6438L44.1753 13.2275L44.3749 12.8806L44.6412 12.5569C44.8276 12.354 45.0515 12.1926 45.2993 12.0823C45.5472 11.972 45.8139 11.9151 46.0834 11.9151C46.3529 11.9151 46.6196 11.972 46.8674 12.0823C47.1153 12.1926 47.3392 12.354 47.5256 12.5569L47.7918 12.8806L47.9693 13.2506C47.9788 13.3892 47.9788 13.5283 47.9693 13.6669C47.9894 13.8048 47.9894 13.9452 47.9693 14.0831C47.9764 14.3594 47.9311 14.6344 47.8362 14.8925C47.7326 15.1514 47.5819 15.387 47.3924 15.5863C47.2067 15.7906 46.9792 15.9487 46.7268 16.0488C46.4724 16.1536 46.2016 16.2085 45.9281 16.2106H45.5287L45.1293 16.0719L44.7743 15.8869C44.6575 15.8119 44.5526 15.7183 44.4637 15.6094C44.2676 15.4158 44.116 15.1787 44.0199 14.9156C43.9174 14.6592 43.8646 14.3841 43.8646 14.1063C43.9106 13.9469 43.97 13.7922 44.0421 13.6438Z" fill="white"/>
<path d="M32.1275 56.4712C32.0498 56.118 32.0599 55.7498 32.157 55.4018C32.2541 55.0537 32.4349 54.7373 32.6822 54.4825L52.9394 33.3462C53.1852 33.0861 53.4911 32.8963 53.8277 32.7951C54.1643 32.6938 54.5202 32.6846 54.8612 32.7682C55.2022 32.8519 55.5168 33.0255 55.7748 33.2726C56.0327 33.5196 56.2253 33.8317 56.3341 34.1787L66.5625 65.8831C66.6876 66.2603 66.7083 66.6665 66.6224 67.0554C66.5364 67.4442 66.3473 67.8001 66.0766 68.0823C65.8058 68.3644 65.4644 68.5615 65.0913 68.6511C64.7182 68.7407 64.3285 68.7191 63.9666 68.5887L33.5697 58.0206C33.2186 57.9199 32.8997 57.7232 32.6461 57.4507C32.3925 57.1783 32.2134 56.8401 32.1275 56.4712ZM48.6128 58.7837L57.0441 49.9731L55.9347 46.5044L45.2625 57.6275L48.6128 58.7837ZM58.5085 54.5056L52.9616 60.2869L61.2819 63.1775L58.5085 54.5056ZM40.936 56.1244L54.4925 41.9719L53.4941 38.8269L37.9628 55.0144L40.936 56.1244Z" fill="white"/>
<path d="M28.2891 34.2712L27.335 28.4669L21.7659 27.4725C21.3507 27.3978 20.9679 27.1909 20.67 26.8804C20.372 26.5699 20.1736 26.1709 20.1019 25.7381L19.1478 19.9338L13.5787 18.9394C13.3136 18.8923 13.0599 18.7913 12.8323 18.642C12.6046 18.4928 12.4073 18.2983 12.2518 18.0696C12.0962 17.8409 11.9854 17.5825 11.9257 17.3092C11.8659 17.0358 11.8584 16.7529 11.9036 16.4766C11.9488 16.2002 12.0457 15.9358 12.1889 15.6985C12.3321 15.4612 12.5187 15.2557 12.7381 15.0935C12.9576 14.9314 13.2055 14.8159 13.4677 14.7536C13.73 14.6914 14.0014 14.6836 14.2666 14.7306L21.2556 15.9794C21.6708 16.0541 22.0537 16.2609 22.3516 16.5715C22.6495 16.882 22.848 17.281 22.9197 17.7138L23.8737 23.5181L29.4428 24.5125C29.858 24.5872 30.2408 24.7941 30.5388 25.1046C30.8367 25.4151 31.0352 25.8141 31.1069 26.2469L32.0609 32.0512L37.7187 33.0688C38.2345 33.147 38.7019 33.4278 39.0254 33.8537C39.3488 34.2796 39.5037 34.8183 39.4583 35.3594C39.4129 35.9005 39.1707 36.403 38.7812 36.7639C38.3918 37.1249 37.8847 37.3169 37.3637 37.3006H37.0087L30.0197 36.0519C29.5861 35.9878 29.1838 35.7801 28.8722 35.4595C28.5606 35.1389 28.3561 34.7223 28.2891 34.2712Z" fill="white"/>
<path d="M5.76872 36.6994L11.6706 34.3869C12.1281 34.2053 12.6331 34.2011 13.0933 34.3751C13.5535 34.5492 13.9384 34.8899 14.1778 35.335L16.3965 39.4744L20.6565 37.8094C21.1141 37.6278 21.619 37.6236 22.0792 37.7976C22.5395 37.9717 22.9244 38.3124 23.1637 38.7575L25.3825 42.8738L29.6425 41.2088C29.8945 41.1116 30.1624 41.0671 30.431 41.0778C30.6995 41.0886 30.9634 41.1543 31.2075 41.2714C31.4517 41.3884 31.6713 41.5544 31.8539 41.7599C32.0365 41.9654 32.1784 42.2064 32.2717 42.4691C32.3649 42.7317 32.4076 43.011 32.3973 43.2909C32.387 43.5708 32.3239 43.8458 32.2116 44.1002C32.0993 44.3547 31.94 44.5836 31.7429 44.7739C31.5457 44.9642 31.3145 45.1122 31.0625 45.2094L25.1606 47.5219C24.7031 47.7035 24.1981 47.7077 23.7379 47.5336C23.2776 47.3596 22.8928 47.0189 22.6534 46.5738L20.4347 42.4344L16.1747 44.0994C15.7171 44.281 15.2122 44.2852 14.7519 44.1111C14.2917 43.9371 13.9068 43.5964 13.6675 43.1513L11.4487 39.0119L7.18871 40.6769C6.93668 40.7756 6.66846 40.8216 6.39937 40.8122C6.13028 40.8029 5.8656 40.7384 5.62042 40.6224C5.37525 40.5065 5.15438 40.3413 4.97045 40.1364C4.78651 39.9315 4.6431 39.6908 4.5484 39.4281C4.45371 39.1654 4.40958 38.8859 4.41854 38.6054C4.42751 38.325 4.48938 38.0491 4.60064 37.7936C4.7119 37.538 4.87035 37.3078 5.06697 37.1161C5.26358 36.9244 5.49449 36.7749 5.74653 36.6763L5.76872 36.6994Z" fill="white"/>
<path d="M38.7394 25.4375L40.2925 20.9744L36.321 18.6619C35.8949 18.4168 35.5669 18.0212 35.3961 17.5463C35.2252 17.0714 35.2227 16.5485 35.3891 16.0719L36.92 11.5625L32.9485 9.25C32.4718 8.97708 32.1187 8.51798 31.9669 7.97372C31.815 7.42945 31.8768 6.8446 32.1386 6.34781C32.4005 5.85103 32.841 5.48301 33.3632 5.32472C33.8854 5.16643 34.4465 5.23083 34.9232 5.50375L40.4257 8.74125C40.8517 8.98633 41.1797 9.38197 41.3506 9.85686C41.5214 10.3317 41.5239 10.8546 41.3575 11.3313L39.8044 15.7713L43.776 18.0838C44.202 18.3288 44.53 18.7245 44.7009 19.1994C44.8717 19.6742 44.8742 20.1971 44.7078 20.6737L43.1547 25.1369L47.1485 27.4494C47.3845 27.5845 47.5926 27.7668 47.7611 27.9858C47.9295 28.2048 48.0549 28.4562 48.1301 28.7257C48.282 29.2699 48.2202 29.8548 47.9583 30.3516C47.6964 30.8483 47.256 31.2164 46.7338 31.3747C46.2116 31.533 45.6504 31.4685 45.1738 31.1956L39.6491 28.0275C39.227 27.7787 38.9037 27.3815 38.737 26.9069C38.5703 26.4324 38.5712 25.9115 38.7394 25.4375Z" fill="white"/>
<path d="M54.2485 22.3619C54.5065 22.4391 54.7474 22.5685 54.9573 22.7428C55.1673 22.9172 55.3422 23.1329 55.472 23.3778C55.6019 23.6227 55.6841 23.8918 55.714 24.1699C55.7439 24.4479 55.7209 24.7294 55.6463 24.9981L54.8031 28.0275C54.6789 28.4672 54.4217 28.8533 54.0699 29.1283C53.718 29.4033 53.2904 29.5525 52.8506 29.5538C52.6593 29.5825 52.4651 29.5825 52.2738 29.5538C52.0157 29.4766 51.7749 29.3471 51.5649 29.1728C51.3549 28.9985 51.18 28.7827 51.0502 28.5378C50.9204 28.293 50.8381 28.0238 50.8082 27.7458C50.7783 27.4677 50.8014 27.1863 50.876 26.9175L51.7191 23.8881C51.786 23.613 51.905 23.3545 52.0692 23.128C52.2334 22.9015 52.4394 22.7116 52.6751 22.5693C52.9108 22.4271 53.1714 22.3355 53.4417 22.2998C53.7119 22.2642 53.9862 22.2853 54.2485 22.3619Z" fill="white"/>
<path d="M38.4731 44.5156C38.0516 44.5143 37.6408 44.3769 37.2972 44.1225L36.099 43.2438C35.879 43.0813 35.6919 42.8752 35.5483 42.6374C35.4047 42.3996 35.3075 42.1346 35.2622 41.8576C35.2169 41.5805 35.2243 41.2969 35.2842 41.0229C35.344 40.7489 35.455 40.4899 35.6109 40.2606C35.7668 40.0313 35.9645 39.8363 36.1927 39.6867C36.4209 39.537 36.6751 39.4357 36.9409 39.3884C37.2067 39.3412 37.4788 39.349 37.7417 39.4113C38.0046 39.4737 38.2531 39.5894 38.4731 39.7519L39.6712 40.6306C40.0335 40.8881 40.3065 41.2603 40.45 41.6922C40.5935 42.124 40.5997 42.5925 40.4678 43.0284C40.3359 43.4642 40.0728 43.8442 39.7176 44.112C39.3623 44.3799 38.9337 44.5214 38.4953 44.5156H38.4731Z" fill="white"/>
<path d="M46.9265 33.5775C47.3086 33.9764 47.5232 34.517 47.5232 35.0806C47.5232 35.6443 47.3086 36.1849 46.9265 36.5837L46.0834 37.4625C45.897 37.6733 45.6716 37.8426 45.4208 37.9604C45.17 38.0781 44.899 38.1418 44.624 38.1476C44.349 38.1534 44.0757 38.1013 43.8206 37.9943C43.5654 37.8873 43.3336 37.7276 43.1391 37.5249C42.9446 37.3222 42.7915 37.0806 42.6888 36.8147C42.5861 36.5487 42.5361 36.2639 42.5417 35.9773C42.5473 35.6907 42.6084 35.4082 42.7213 35.1468C42.8343 34.8854 42.9968 34.6505 43.199 34.4562L44.0421 33.5775C44.4249 33.1793 44.9435 32.9556 45.4843 32.9556C46.0251 32.9556 46.5438 33.1793 46.9265 33.5775Z" fill="white"/>
<path d="M24.4063 55.1531H24.0513C23.7818 55.1698 23.5117 55.131 23.2566 55.039C23.0015 54.9469 22.7662 54.8034 22.5643 54.6165C22.3624 54.4297 22.1978 54.2033 22.0798 53.9501C21.9619 53.697 21.8929 53.4221 21.8769 53.1412C21.8609 52.8603 21.8981 52.5789 21.9864 52.313C22.0748 52.0471 22.2125 51.8019 22.3917 51.5914C22.571 51.381 22.7883 51.2094 23.0311 51.0865C23.274 50.9636 23.5377 50.8917 23.8072 50.875L28.8438 50.0656C29.1089 50.0185 29.3804 50.0264 29.6426 50.0886C29.9049 50.1509 30.1528 50.2664 30.3722 50.4285C30.5916 50.5906 30.7783 50.7962 30.9215 51.0335C31.0647 51.2708 31.1616 51.5352 31.2068 51.8116C31.2519 52.0879 31.2444 52.3708 31.1847 52.6442C31.1249 52.9175 31.0141 53.1759 30.8586 53.4046C30.703 53.6333 30.5058 53.8278 30.2781 53.977C30.0504 54.1263 29.7967 54.2273 29.5316 54.2744L24.4063 55.1531Z" fill="white"/>
</svg>
