<svg width="71" height="74" viewBox="0 0 71 74" fill="none" xmlns="http://www.w3.org/2000/svg">
<path d="M53.6049 32.8606L53.4718 32.375L53.2499 32.0975L52.9837 31.7737C52.7973 31.5709 52.5734 31.4095 52.3256 31.2992C52.0777 31.1889 51.811 31.132 51.5415 31.132C51.272 31.132 51.0053 31.1889 50.7574 31.2992C50.5096 31.4095 50.2857 31.5709 50.0993 31.7737L49.8331 32.0975L49.6556 32.4675C49.646 32.6061 49.646 32.7452 49.6556 32.8838C49.6355 33.0217 49.6355 33.162 49.6556 33.3C49.6485 33.5763 49.6938 33.8513 49.7887 34.1094C49.8923 34.3683 50.043 34.6039 50.2324 34.8031C50.4182 35.0075 50.6457 35.1655 50.8981 35.2656C51.1525 35.3704 51.4233 35.4253 51.6968 35.4275H52.0962L52.4956 35.2888L52.8506 35.1038C52.9317 34.9763 52.9917 34.8356 53.0281 34.6875C53.2241 34.4939 53.3758 34.2568 53.4718 33.9937C53.5743 33.7373 53.6271 33.4622 53.6271 33.1844C53.6257 33.0761 53.6183 32.968 53.6049 32.8606Z" fill="white"/>
<path d="M57.6875 24.3275L57.5544 23.9113L57.3769 23.5413L57.1106 23.125C56.9242 22.9221 56.7004 22.7607 56.4525 22.6504C56.2047 22.5401 55.938 22.4833 55.6685 22.4833C55.399 22.4833 55.1322 22.5401 54.8844 22.6504C54.6365 22.7607 54.4127 22.9221 54.2263 23.125L53.96 23.4488L53.7825 23.8188C53.773 23.9573 53.773 24.0964 53.7825 24.235C53.7624 24.373 53.7624 24.5133 53.7825 24.6513C53.7755 24.9275 53.8207 25.2026 53.9156 25.4606C54.0192 25.7196 54.1699 25.9551 54.3594 26.1544C54.5451 26.3587 54.7726 26.5168 55.025 26.6169C55.2794 26.7217 55.5502 26.7766 55.8238 26.7788H56.2231L56.6225 26.64L56.9775 26.455C57.0944 26.38 57.1992 26.2864 57.2881 26.1775C57.4842 25.9839 57.6359 25.7468 57.7319 25.4838C57.7592 25.2363 57.7442 24.9857 57.6875 24.7438C57.6974 24.6052 57.6974 24.4661 57.6875 24.3275Z" fill="white"/>
<path d="M47.459 13.6437L47.3259 13.2275L47.1484 12.8575L46.8821 12.5337C46.6957 12.3309 46.4719 12.1694 46.224 12.0592C45.9761 11.9489 45.7094 11.892 45.4399 11.892C45.1704 11.892 44.9037 11.9489 44.6559 12.0592C44.408 12.1694 44.1842 12.3309 43.9978 12.5337L43.7315 12.8575L43.554 13.2275C43.5445 13.3661 43.5445 13.5052 43.554 13.6437C43.5339 13.7817 43.5339 13.922 43.554 14.06C43.547 14.3363 43.5922 14.6113 43.6871 14.8694C43.7907 15.1283 43.9414 15.3639 44.1309 15.5631C44.3166 15.7674 44.5441 15.9255 44.7965 16.0256C45.0509 16.1304 45.3217 16.1853 45.5953 16.1875H45.9946L46.394 16.0487L46.5937 15.8406C46.7105 15.7657 46.8154 15.672 46.9043 15.5631C47.1004 15.3696 47.252 15.1324 47.3481 14.8694C47.4506 14.6129 47.5034 14.3378 47.5034 14.06C47.4985 13.9203 47.4837 13.7812 47.459 13.6437Z" fill="white"/>
<path d="M39.2497 22.1769L39.1166 21.7606L38.9391 21.3906L38.6729 21.0669C38.4865 20.864 38.2626 20.7026 38.0147 20.5923C37.7669 20.482 37.5002 20.4251 37.2307 20.4251C36.9612 20.4251 36.6945 20.482 36.4466 20.5923C36.1988 20.7026 35.9749 20.864 35.7885 21.0669L35.5001 21.4137L35.3226 21.7837C35.313 21.9223 35.313 22.0614 35.3226 22.2C35.3025 22.338 35.3025 22.4783 35.3226 22.6162C35.3155 22.8925 35.3607 23.1676 35.4557 23.4256C35.5593 23.6845 35.71 23.9201 35.8994 24.1194C36.0852 24.3237 36.3127 24.4818 36.5651 24.5819C36.8195 24.6867 37.0903 24.7416 37.3638 24.7437H37.7632L38.1626 24.605L38.5176 24.42C38.6344 24.345 38.7392 24.2514 38.8282 24.1425C39.0242 23.9489 39.1759 23.7118 39.2719 23.4487C39.3745 23.1923 39.4272 22.9172 39.4272 22.6394C39.3813 22.4801 39.3219 22.3253 39.2497 22.1769Z" fill="white"/>
<path d="M26.9579 13.6438L26.8247 13.2275L26.6251 12.8806L26.3588 12.5569C26.1724 12.354 25.9485 12.1926 25.7007 12.0823C25.4528 11.972 25.1861 11.9151 24.9166 11.9151C24.6471 11.9151 24.3804 11.972 24.1326 12.0823C23.8847 12.1926 23.6608 12.354 23.4744 12.5569L23.2082 12.8806L23.0307 13.2506C23.0212 13.3892 23.0212 13.5283 23.0307 13.6669C23.0106 13.8048 23.0106 13.9452 23.0307 14.0831C23.0236 14.3594 23.0689 14.6344 23.1638 14.8925C23.2674 15.1514 23.4181 15.387 23.6076 15.5863C23.7933 15.7906 24.0208 15.9487 24.2732 16.0488C24.5276 16.1536 24.7984 16.2085 25.0719 16.2106H25.4713L25.8707 16.0719L26.2257 15.8869C26.3425 15.8119 26.4474 15.7183 26.5363 15.6094C26.7324 15.4158 26.884 15.1787 26.9801 14.9156C27.0826 14.6592 27.1354 14.3841 27.1354 14.1063C27.0894 13.9469 27.03 13.7922 26.9579 13.6438Z" fill="white"/>
<path d="M38.8725 56.4712C38.9502 56.118 38.9401 55.7498 38.843 55.4018C38.7459 55.0537 38.5651 54.7373 38.3178 54.4825L18.0606 33.3462C17.8148 33.0861 17.5089 32.8963 17.1723 32.7951C16.8357 32.6938 16.4798 32.6846 16.1388 32.7682C15.7978 32.8519 15.4832 33.0255 15.2252 33.2726C14.9673 33.5196 14.7747 33.8317 14.6659 34.1787L4.43747 65.8831C4.31244 66.2603 4.29171 66.6665 4.37764 67.0554C4.46357 67.4442 4.6527 67.8001 4.92343 68.0823C5.19416 68.3644 5.53557 68.5615 5.90868 68.6511C6.28178 68.7407 6.67153 68.7191 7.03341 68.5887L37.4303 58.0206C37.7814 57.9199 38.1003 57.7232 38.3539 57.4507C38.6075 57.1783 38.7866 56.8401 38.8725 56.4712ZM22.3872 58.7837L13.9559 49.9731L15.0653 46.5044L25.7375 57.6275L22.3872 58.7837ZM12.4915 54.5056L18.0384 60.2869L9.7181 63.1775L12.4915 54.5056ZM30.064 56.1244L16.5075 41.9719L17.5059 38.8269L33.0372 55.0144L30.064 56.1244Z" fill="white"/>
<path d="M42.7109 34.2712L43.665 28.4669L49.2341 27.4725C49.6493 27.3978 50.0321 27.1909 50.33 26.8804C50.628 26.5699 50.8264 26.1709 50.8981 25.7381L51.8522 19.9338L57.4213 18.9394C57.6864 18.8923 57.9401 18.7913 58.1677 18.642C58.3954 18.4928 58.5927 18.2983 58.7482 18.0696C58.9038 17.8409 59.0146 17.5825 59.0743 17.3092C59.1341 17.0358 59.1416 16.7529 59.0964 16.4766C59.0512 16.2002 58.9543 15.9358 58.8111 15.6985C58.6679 15.4612 58.4813 15.2557 58.2619 15.0935C58.0424 14.9314 57.7945 14.8159 57.5323 14.7536C57.27 14.6914 56.9986 14.6836 56.7334 14.7306L49.7444 15.9794C49.3292 16.0541 48.9463 16.2609 48.6484 16.5715C48.3505 16.882 48.152 17.281 48.0803 17.7138L47.1263 23.5181L41.5572 24.5125C41.142 24.5872 40.7592 24.7941 40.4612 25.1046C40.1633 25.4151 39.9648 25.8141 39.8931 26.2469L38.9391 32.0512L33.2813 33.0688C32.7655 33.147 32.2981 33.4278 31.9746 33.8537C31.6512 34.2796 31.4963 34.8183 31.5417 35.3594C31.5871 35.9005 31.8293 36.403 32.2188 36.7639C32.6082 37.1249 33.1153 37.3169 33.6363 37.3006H33.9913L40.9803 36.0519C41.4139 35.9878 41.8162 35.7801 42.1278 35.4595C42.4394 35.1389 42.6439 34.7223 42.7109 34.2712Z" fill="white"/>
<path d="M65.2313 36.6994L59.3294 34.3869C58.8719 34.2053 58.3669 34.2011 57.9067 34.3751C57.4465 34.5492 57.0616 34.8899 56.8222 35.335L54.6035 39.4744L50.3435 37.8094C49.8859 37.6278 49.381 37.6236 48.9208 37.7976C48.4605 37.9717 48.0756 38.3124 47.8363 38.7575L45.6175 42.8738L41.3575 41.2088C41.1055 41.1116 40.8376 41.0671 40.569 41.0778C40.3005 41.0886 40.0366 41.1543 39.7925 41.2714C39.5483 41.3884 39.3287 41.5544 39.1461 41.7599C38.9635 41.9654 38.8216 42.2064 38.7283 42.4691C38.6351 42.7317 38.5924 43.011 38.6027 43.2909C38.613 43.5708 38.6761 43.8458 38.7884 44.1002C38.9007 44.3547 39.06 44.5836 39.2571 44.7739C39.4543 44.9642 39.6855 45.1122 39.9375 45.2094L45.8394 47.5219C46.2969 47.7035 46.8019 47.7077 47.2621 47.5336C47.7224 47.3596 48.1072 47.0189 48.3466 46.5738L50.5653 42.4344L54.8253 44.0994C55.2829 44.281 55.7878 44.2852 56.2481 44.1111C56.7083 43.9371 57.0932 43.5964 57.3325 43.1513L59.5513 39.0119L63.8113 40.6769C64.0633 40.7756 64.3315 40.8216 64.6006 40.8122C64.8697 40.8029 65.1344 40.7384 65.3796 40.6224C65.6248 40.5065 65.8456 40.3413 66.0296 40.1364C66.2135 39.9315 66.3569 39.6908 66.4516 39.4281C66.5463 39.1654 66.5904 38.8859 66.5815 38.6054C66.5725 38.325 66.5106 38.0491 66.3994 37.7936C66.2881 37.538 66.1296 37.3078 65.933 37.1161C65.7364 36.9244 65.5055 36.7749 65.2535 36.6763L65.2313 36.6994Z" fill="white"/>
<path d="M32.2606 25.4375L30.7075 20.9744L34.679 18.6619C35.1051 18.4168 35.4331 18.0212 35.6039 17.5463C35.7748 17.0714 35.7773 16.5485 35.6109 16.0719L34.08 11.5625L38.0515 9.25C38.5282 8.97708 38.8813 8.51798 39.0331 7.97372C39.185 7.42945 39.1232 6.8446 38.8614 6.34781C38.5995 5.85103 38.159 5.48301 37.6368 5.32472C37.1146 5.16643 36.5535 5.23083 36.0768 5.50375L30.5743 8.74125C30.1483 8.98633 29.8203 9.38197 29.6494 9.85686C29.4786 10.3317 29.4761 10.8546 29.6425 11.3313L31.1956 15.7713L27.224 18.0838C26.798 18.3288 26.47 18.7245 26.2991 19.1994C26.1283 19.6742 26.1258 20.1971 26.2922 20.6737L27.8453 25.1369L23.8515 27.4494C23.6155 27.5845 23.4074 27.7668 23.2389 27.9858C23.0705 28.2048 22.9451 28.4562 22.8699 28.7257C22.718 29.2699 22.7798 29.8548 23.0417 30.3516C23.3036 30.8483 23.744 31.2164 24.2662 31.3747C24.7884 31.533 25.3496 31.4685 25.8262 31.1956L31.3509 28.0275C31.773 27.7787 32.0963 27.3815 32.263 26.9069C32.4297 26.4324 32.4288 25.9115 32.2606 25.4375Z" fill="white"/>
<path d="M16.7515 22.3619C16.4935 22.4391 16.2526 22.5685 16.0427 22.7428C15.8327 22.9172 15.6578 23.1329 15.528 23.3778C15.3981 23.6227 15.3159 23.8918 15.286 24.1699C15.2561 24.4479 15.2791 24.7294 15.3537 24.9981L16.1969 28.0275C16.3211 28.4672 16.5783 28.8533 16.9301 29.1283C17.282 29.4033 17.7096 29.5525 18.1494 29.5538C18.3407 29.5825 18.5349 29.5825 18.7262 29.5538C18.9843 29.4766 19.2251 29.3471 19.4351 29.1728C19.6451 28.9985 19.82 28.7827 19.9498 28.5378C20.0796 28.293 20.1619 28.0238 20.1918 27.7458C20.2217 27.4677 20.1986 27.1863 20.124 26.9175L19.2809 23.8881C19.214 23.613 19.095 23.3545 18.9308 23.128C18.7666 22.9015 18.5606 22.7116 18.3249 22.5693C18.0892 22.4271 17.8286 22.3355 17.5583 22.2998C17.2881 22.2642 17.0138 22.2853 16.7515 22.3619Z" fill="white"/>
<path d="M32.5269 44.5156C32.9484 44.5143 33.3592 44.3769 33.7028 44.1225L34.901 43.2438C35.121 43.0813 35.3081 42.8752 35.4517 42.6374C35.5953 42.3996 35.6925 42.1346 35.7378 41.8576C35.7831 41.5805 35.7757 41.2969 35.7158 41.0229C35.656 40.7489 35.545 40.4899 35.3891 40.2606C35.2332 40.0313 35.0355 39.8363 34.8073 39.6867C34.5791 39.537 34.3249 39.4357 34.0591 39.3884C33.7933 39.3412 33.5212 39.349 33.2583 39.4113C32.9954 39.4737 32.7469 39.5894 32.5269 39.7519L31.3288 40.6306C30.9665 40.8881 30.6935 41.2603 30.55 41.6922C30.4065 42.124 30.4003 42.5925 30.5322 43.0284C30.6641 43.4642 30.9272 43.8442 31.2824 44.112C31.6377 44.3799 32.0663 44.5214 32.5047 44.5156H32.5269Z" fill="white"/>
<path d="M24.0735 33.5775C23.6914 33.9764 23.4768 34.517 23.4768 35.0806C23.4768 35.6443 23.6914 36.1849 24.0735 36.5837L24.9166 37.4625C25.103 37.6733 25.3284 37.8426 25.5792 37.9604C25.83 38.0781 26.101 38.1418 26.376 38.1476C26.651 38.1534 26.9243 38.1013 27.1794 37.9943C27.4346 37.8873 27.6664 37.7276 27.8609 37.5249C28.0554 37.3222 28.2085 37.0806 28.3112 36.8147C28.4139 36.5487 28.4639 36.2639 28.4583 35.9773C28.4527 35.6907 28.3916 35.4082 28.2787 35.1468C28.1657 34.8854 28.0032 34.6505 27.801 34.4562L26.9579 33.5775C26.5751 33.1793 26.0565 32.9556 25.5157 32.9556C24.9749 32.9556 24.4562 33.1793 24.0735 33.5775Z" fill="white"/>
<path d="M46.5937 55.1531H46.9487C47.2182 55.1698 47.4883 55.131 47.7434 55.039C47.9985 54.9469 48.2338 54.8034 48.4357 54.6165C48.6376 54.4297 48.8022 54.2033 48.9202 53.9501C49.0381 53.697 49.1071 53.4221 49.1231 53.1412C49.1391 52.8603 49.1019 52.5789 49.0136 52.313C48.9252 52.0471 48.7875 51.8019 48.6083 51.5914C48.429 51.381 48.2117 51.2094 47.9689 51.0865C47.726 50.9636 47.4623 50.8917 47.1928 50.875L42.1562 50.0656C41.8911 50.0185 41.6196 50.0264 41.3574 50.0886C41.0951 50.1509 40.8472 50.2664 40.6278 50.4285C40.4084 50.5906 40.2217 50.7962 40.0785 51.0335C39.9353 51.2708 39.8384 51.5352 39.7932 51.8116C39.7481 52.0879 39.7556 52.3708 39.8153 52.6442C39.8751 52.9175 39.9859 53.1759 40.1414 53.4046C40.297 53.6333 40.4942 53.8278 40.7219 53.977C40.9496 54.1263 41.2033 54.2273 41.4684 54.2744L46.5937 55.1531Z" fill="white"/>
</svg>
