<svg width="378" height="238" viewBox="0 0 378 238" fill="none" xmlns="http://www.w3.org/2000/svg">
<g clip-path="url(#clip0_468_195)">
<path d="M37.4683 10.0972C36.5996 9.17706 35.2691 8.83649 34.0471 9.22149C32.8251 9.60648 31.94 10.645 31.7456 11.9001L29.4724 26.9749L15.8647 33.5628C14.7285 34.1161 13.9962 35.2584 13.9863 36.5097C13.9764 37.7609 14.6695 38.9209 15.7883 39.4909L29.3478 46.4087L31.4356 61.5639C31.6102 62.8113 32.4864 63.8593 33.6908 64.2505C34.8953 64.6416 36.2248 64.3204 37.1205 63.4196L47.7368 52.6407L62.6144 55.388C63.8648 55.6127 65.1414 55.1237 65.901 54.103C66.6607 53.0822 66.7811 51.7311 66.2091 50.6089L59.2232 36.9967L66.3689 23.556C66.9589 22.4476 66.8719 21.0967 66.1366 20.0802C65.4014 19.0637 64.1565 18.5442 62.9083 18.7421L47.9719 21.1468L37.4683 10.0972Z" fill="url(#paint0_linear_468_195)"/>
</g>
<g clip-path="url(#clip1_468_195)">
<path d="M338.899 20.8439C335.9 20.0284 332.804 21.7966 331.989 24.7948L331.633 26.1105C330.791 29.1874 330.489 32.3635 330.717 35.5026L315.618 27.9659C312.84 26.5789 309.46 27.708 308.073 30.4865C307.105 32.4262 307.363 34.6639 308.559 36.3087C306.956 36.6609 305.515 37.71 304.725 39.2932C303.5 41.7467 304.241 44.6706 306.339 46.2677C305.495 46.8028 304.788 47.5632 304.312 48.5173C303.197 50.7506 303.707 53.3759 305.396 55.0309C305.15 55.3402 304.925 55.6863 304.736 56.0638C303.349 58.8423 304.478 62.2218 307.257 63.6088L317.48 68.7118C319.472 69.7062 321.705 70.0873 323.911 69.8133L329.293 69.1337C333.024 68.6648 336.272 66.3566 337.952 62.9909L339.956 58.9752L342.469 53.9423L343.772 51.3316C345.3 48.2699 345.345 44.6904 343.922 41.5836L343.455 40.5777C341.786 36.9679 341.448 32.896 342.494 29.0696L342.849 27.7539C343.665 24.7556 341.897 21.6595 338.899 20.8439ZM360.076 52.2536L353.366 48.9039C351.51 47.9776 349.262 48.7285 348.336 50.5843L336.612 74.0709C335.686 75.9267 336.437 78.1745 338.293 79.1009L345.003 82.4505C346.859 83.3769 349.107 82.626 350.033 80.7701L361.757 57.2836C362.683 55.4278 361.932 53.18 360.076 52.2536Z" fill="#1A46E2"/>
</g>
<path d="M165.578 128.203L186.754 147.973C187.633 148.793 188.793 149.25 190 149.25C191.207 149.25 192.367 148.793 193.246 147.973L214.422 128.203C217.984 124.887 220 120.234 220 115.371V114.691C220 106.5 214.082 99.5156 206.008 98.168C200.664 97.2773 195.227 99.0234 191.406 102.844L190 104.25L188.594 102.844C184.773 99.0234 179.336 97.2773 173.992 98.168C165.918 99.5156 160 106.5 160 114.691V115.371C160 120.234 162.016 124.887 165.578 128.203Z" fill="url(#paint1_linear_468_195)"/>
<path d="M53.6049 196.861L53.4718 196.375L53.2499 196.098L52.9837 195.774C52.7973 195.571 52.5734 195.409 52.3256 195.299C52.0777 195.189 51.811 195.132 51.5415 195.132C51.272 195.132 51.0053 195.189 50.7574 195.299C50.5096 195.409 50.2857 195.571 50.0993 195.774L49.8331 196.098L49.6556 196.467C49.646 196.606 49.646 196.745 49.6556 196.884C49.6355 197.022 49.6355 197.162 49.6556 197.3C49.6485 197.576 49.6938 197.851 49.7887 198.109C49.8923 198.368 50.043 198.604 50.2324 198.803C50.4182 199.007 50.6457 199.166 50.8981 199.266C51.1525 199.37 51.4233 199.425 51.6968 199.427H52.0962L52.4956 199.289L52.8506 199.104C52.9317 198.976 52.9917 198.836 53.0281 198.688C53.2241 198.494 53.3758 198.257 53.4718 197.994C53.5743 197.737 53.6271 197.462 53.6271 197.184C53.6257 197.076 53.6183 196.968 53.6049 196.861Z" fill="white"/>
<path d="M57.6875 188.328L57.5544 187.911L57.3769 187.541L57.1106 187.125C56.9242 186.922 56.7004 186.761 56.4525 186.65C56.2047 186.54 55.938 186.483 55.6685 186.483C55.399 186.483 55.1322 186.54 54.8844 186.65C54.6365 186.761 54.4127 186.922 54.2263 187.125L53.96 187.449L53.7825 187.819C53.773 187.957 53.773 188.096 53.7825 188.235C53.7624 188.373 53.7624 188.513 53.7825 188.651C53.7755 188.928 53.8207 189.203 53.9156 189.461C54.0192 189.72 54.1699 189.955 54.3594 190.154C54.5451 190.359 54.7726 190.517 55.025 190.617C55.2794 190.722 55.5502 190.777 55.8238 190.779H56.2231L56.6225 190.64L56.9775 190.455C57.0944 190.38 57.1992 190.286 57.2881 190.178C57.4842 189.984 57.6359 189.747 57.7319 189.484C57.7592 189.236 57.7442 188.986 57.6875 188.744C57.6974 188.605 57.6974 188.466 57.6875 188.328Z" fill="white"/>
<path d="M47.459 177.644L47.3259 177.227L47.1484 176.857L46.8821 176.534C46.6957 176.331 46.4719 176.169 46.224 176.059C45.9761 175.949 45.7094 175.892 45.4399 175.892C45.1704 175.892 44.9037 175.949 44.6559 176.059C44.408 176.169 44.1842 176.331 43.9978 176.534L43.7315 176.857L43.554 177.227C43.5445 177.366 43.5445 177.505 43.554 177.644C43.5339 177.782 43.5339 177.922 43.554 178.06C43.547 178.336 43.5922 178.611 43.6871 178.869C43.7907 179.128 43.9414 179.364 44.1309 179.563C44.3166 179.767 44.5441 179.926 44.7965 180.026C45.0509 180.13 45.3217 180.185 45.5953 180.187H45.9946L46.394 180.049L46.5937 179.841C46.7105 179.766 46.8154 179.672 46.9043 179.563C47.1004 179.37 47.252 179.132 47.3481 178.869C47.4506 178.613 47.5034 178.338 47.5034 178.06C47.4985 177.92 47.4837 177.781 47.459 177.644Z" fill="white"/>
<path d="M39.2497 186.177L39.1166 185.761L38.9391 185.391L38.6729 185.067C38.4865 184.864 38.2626 184.703 38.0147 184.592C37.7669 184.482 37.5002 184.425 37.2307 184.425C36.9612 184.425 36.6945 184.482 36.4466 184.592C36.1988 184.703 35.9749 184.864 35.7885 185.067L35.5001 185.414L35.3226 185.784C35.313 185.922 35.313 186.061 35.3226 186.2C35.3025 186.338 35.3025 186.478 35.3226 186.616C35.3155 186.893 35.3607 187.168 35.4557 187.426C35.5593 187.685 35.71 187.92 35.8994 188.119C36.0852 188.324 36.3127 188.482 36.5651 188.582C36.8195 188.687 37.0903 188.742 37.3638 188.744H37.7632L38.1626 188.605L38.5176 188.42C38.6344 188.345 38.7392 188.251 38.8282 188.142C39.0242 187.949 39.1759 187.712 39.2719 187.449C39.3745 187.192 39.4272 186.917 39.4272 186.639C39.3813 186.48 39.3219 186.325 39.2497 186.177Z" fill="white"/>
<path d="M26.9579 177.644L26.8247 177.228L26.6251 176.881L26.3588 176.557C26.1724 176.354 25.9485 176.193 25.7007 176.082C25.4528 175.972 25.1861 175.915 24.9166 175.915C24.6471 175.915 24.3804 175.972 24.1326 176.082C23.8847 176.193 23.6608 176.354 23.4744 176.557L23.2082 176.881L23.0307 177.251C23.0212 177.389 23.0212 177.528 23.0307 177.667C23.0106 177.805 23.0106 177.945 23.0307 178.083C23.0236 178.359 23.0689 178.634 23.1638 178.893C23.2674 179.151 23.4181 179.387 23.6076 179.586C23.7933 179.791 24.0208 179.949 24.2732 180.049C24.5276 180.154 24.7984 180.208 25.0719 180.211H25.4713L25.8707 180.072L26.2257 179.887C26.3425 179.812 26.4474 179.718 26.5363 179.609C26.7324 179.416 26.884 179.179 26.9801 178.916C27.0826 178.659 27.1354 178.384 27.1354 178.106C27.0894 177.947 27.03 177.792 26.9579 177.644Z" fill="white"/>
<path d="M38.8725 220.471C38.9502 220.118 38.9401 219.75 38.843 219.402C38.7459 219.054 38.5651 218.737 38.3178 218.482L18.0606 197.346C17.8148 197.086 17.5089 196.896 17.1723 196.795C16.8357 196.694 16.4798 196.685 16.1388 196.768C15.7978 196.852 15.4832 197.026 15.2252 197.273C14.9673 197.52 14.7747 197.832 14.6659 198.179L4.43747 229.883C4.31244 230.26 4.29171 230.667 4.37764 231.055C4.46357 231.444 4.6527 231.8 4.92343 232.082C5.19416 232.364 5.53557 232.562 5.90868 232.651C6.28178 232.741 6.67153 232.719 7.03341 232.589L37.4303 222.021C37.7814 221.92 38.1003 221.723 38.3539 221.451C38.6075 221.178 38.7866 220.84 38.8725 220.471ZM22.3872 222.784L13.9559 213.973L15.0653 210.504L25.7375 221.627L22.3872 222.784ZM12.4915 218.506L18.0384 224.287L9.7181 227.177L12.4915 218.506ZM30.064 220.124L16.5075 205.972L17.5059 202.827L33.0372 219.014L30.064 220.124Z" fill="white"/>
<path d="M42.7109 198.271L43.665 192.467L49.2341 191.472C49.6493 191.398 50.0321 191.191 50.33 190.88C50.628 190.57 50.8264 190.171 50.8981 189.738L51.8522 183.934L57.4213 182.939C57.6864 182.892 57.9401 182.791 58.1677 182.642C58.3954 182.493 58.5927 182.298 58.7482 182.07C58.9038 181.841 59.0146 181.582 59.0743 181.309C59.1341 181.036 59.1416 180.753 59.0964 180.477C59.0512 180.2 58.9543 179.936 58.8111 179.699C58.6679 179.461 58.4813 179.256 58.2619 179.094C58.0424 178.931 57.7945 178.816 57.5323 178.754C57.27 178.691 56.9986 178.684 56.7334 178.731L49.7444 179.979C49.3292 180.054 48.9463 180.261 48.6484 180.571C48.3505 180.882 48.152 181.281 48.0803 181.714L47.1263 187.518L41.5572 188.513C41.142 188.587 40.7592 188.794 40.4612 189.105C40.1633 189.415 39.9648 189.814 39.8931 190.247L38.9391 196.051L33.2813 197.069C32.7655 197.147 32.2981 197.428 31.9746 197.854C31.6512 198.28 31.4963 198.818 31.5417 199.359C31.5871 199.9 31.8293 200.403 32.2188 200.764C32.6082 201.125 33.1153 201.317 33.6363 201.301H33.9913L40.9803 200.052C41.4139 199.988 41.8162 199.78 42.1278 199.459C42.4394 199.139 42.6439 198.722 42.7109 198.271Z" fill="white"/>
<path d="M65.2313 200.699L59.3294 198.387C58.8719 198.205 58.3669 198.201 57.9067 198.375C57.4465 198.549 57.0616 198.89 56.8222 199.335L54.6035 203.474L50.3435 201.809C49.8859 201.628 49.381 201.624 48.9208 201.798C48.4605 201.972 48.0756 202.312 47.8363 202.758L45.6175 206.874L41.3575 205.209C41.1055 205.112 40.8376 205.067 40.569 205.078C40.3005 205.089 40.0366 205.154 39.7925 205.271C39.5483 205.388 39.3287 205.554 39.1461 205.76C38.9635 205.965 38.8216 206.206 38.7283 206.469C38.6351 206.732 38.5924 207.011 38.6027 207.291C38.613 207.571 38.6761 207.846 38.7884 208.1C38.9007 208.355 39.06 208.584 39.2571 208.774C39.4543 208.964 39.6855 209.112 39.9375 209.209L45.8394 211.522C46.2969 211.703 46.8019 211.708 47.2621 211.534C47.7224 211.36 48.1072 211.019 48.3466 210.574L50.5653 206.434L54.8253 208.099C55.2829 208.281 55.7878 208.285 56.2481 208.111C56.7083 207.937 57.0932 207.596 57.3325 207.151L59.5513 203.012L63.8113 204.677C64.0633 204.776 64.3315 204.822 64.6006 204.812C64.8697 204.803 65.1344 204.738 65.3796 204.622C65.6248 204.506 65.8456 204.341 66.0296 204.136C66.2135 203.931 66.3569 203.691 66.4516 203.428C66.5463 203.165 66.5904 202.886 66.5815 202.605C66.5725 202.325 66.5106 202.049 66.3994 201.794C66.2881 201.538 66.1296 201.308 65.933 201.116C65.7364 200.924 65.5055 200.775 65.2535 200.676L65.2313 200.699Z" fill="white"/>
<path d="M32.2606 189.438L30.7075 184.974L34.679 182.662C35.1051 182.417 35.4331 182.021 35.6039 181.546C35.7748 181.071 35.7773 180.548 35.6109 180.072L34.08 175.563L38.0515 173.25C38.5282 172.977 38.8813 172.518 39.0331 171.974C39.185 171.429 39.1232 170.845 38.8614 170.348C38.5995 169.851 38.159 169.483 37.6368 169.325C37.1146 169.166 36.5535 169.231 36.0768 169.504L30.5743 172.741C30.1483 172.986 29.8203 173.382 29.6494 173.857C29.4786 174.332 29.4761 174.855 29.6425 175.331L31.1956 179.771L27.224 182.084C26.798 182.329 26.47 182.724 26.2991 183.199C26.1283 183.674 26.1258 184.197 26.2922 184.674L27.8453 189.137L23.8515 191.449C23.6155 191.585 23.4074 191.767 23.2389 191.986C23.0705 192.205 22.9451 192.456 22.8699 192.726C22.718 193.27 22.7798 193.855 23.0417 194.352C23.3036 194.848 23.744 195.216 24.2662 195.375C24.7884 195.533 25.3496 195.469 25.8262 195.196L31.3509 192.028C31.773 191.779 32.0963 191.382 32.263 190.907C32.4297 190.432 32.4288 189.911 32.2606 189.438Z" fill="white"/>
<path d="M16.7515 186.362C16.4935 186.439 16.2526 186.569 16.0427 186.743C15.8327 186.917 15.6578 187.133 15.528 187.378C15.3981 187.623 15.3159 187.892 15.286 188.17C15.2561 188.448 15.2791 188.729 15.3537 188.998L16.1969 192.028C16.3211 192.467 16.5783 192.853 16.9301 193.128C17.282 193.403 17.7096 193.553 18.1494 193.554C18.3407 193.583 18.5349 193.583 18.7262 193.554C18.9843 193.477 19.2251 193.347 19.4351 193.173C19.6451 192.998 19.82 192.783 19.9498 192.538C20.0796 192.293 20.1619 192.024 20.1918 191.746C20.2217 191.468 20.1986 191.186 20.124 190.918L19.2809 187.888C19.214 187.613 19.095 187.355 18.9308 187.128C18.7666 186.902 18.5606 186.712 18.3249 186.569C18.0892 186.427 17.8286 186.335 17.5583 186.3C17.2881 186.264 17.0138 186.285 16.7515 186.362Z" fill="white"/>
<path d="M32.5269 208.516C32.9484 208.514 33.3592 208.377 33.7028 208.122L34.901 207.244C35.121 207.081 35.3081 206.875 35.4517 206.637C35.5953 206.4 35.6925 206.135 35.7378 205.858C35.7831 205.581 35.7757 205.297 35.7158 205.023C35.656 204.749 35.545 204.49 35.3891 204.261C35.2332 204.031 35.0355 203.836 34.8073 203.687C34.5791 203.537 34.3249 203.436 34.0591 203.388C33.7933 203.341 33.5212 203.349 33.2583 203.411C32.9954 203.474 32.7469 203.589 32.5269 203.752L31.3288 204.631C30.9665 204.888 30.6935 205.26 30.55 205.692C30.4065 206.124 30.4003 206.593 30.5322 207.028C30.6641 207.464 30.9272 207.844 31.2824 208.112C31.6377 208.38 32.0663 208.521 32.5047 208.516H32.5269Z" fill="white"/>
<path d="M24.0735 197.578C23.6914 197.976 23.4768 198.517 23.4768 199.081C23.4768 199.644 23.6914 200.185 24.0735 200.584L24.9166 201.463C25.103 201.673 25.3284 201.843 25.5792 201.96C25.83 202.078 26.101 202.142 26.376 202.148C26.651 202.153 26.9243 202.101 27.1794 201.994C27.4346 201.887 27.6664 201.728 27.8609 201.525C28.0554 201.322 28.2085 201.081 28.3112 200.815C28.4139 200.549 28.4639 200.264 28.4583 199.977C28.4527 199.691 28.3916 199.408 28.2787 199.147C28.1657 198.885 28.0032 198.651 27.801 198.456L26.9579 197.578C26.5751 197.179 26.0565 196.956 25.5157 196.956C24.9749 196.956 24.4562 197.179 24.0735 197.578Z" fill="white"/>
<path d="M46.5937 219.153H46.9487C47.2182 219.17 47.4883 219.131 47.7434 219.039C47.9985 218.947 48.2338 218.803 48.4357 218.617C48.6376 218.43 48.8022 218.203 48.9202 217.95C49.0381 217.697 49.1071 217.422 49.1231 217.141C49.1391 216.86 49.1019 216.579 49.0136 216.313C48.9252 216.047 48.7875 215.802 48.6083 215.591C48.429 215.381 48.2117 215.209 47.9689 215.086C47.726 214.964 47.4623 214.892 47.1928 214.875L42.1562 214.066C41.8911 214.019 41.6196 214.026 41.3574 214.089C41.0951 214.151 40.8472 214.266 40.6278 214.429C40.4084 214.591 40.2217 214.796 40.0785 215.034C39.9353 215.271 39.8384 215.535 39.7932 215.812C39.7481 216.088 39.7556 216.371 39.8153 216.644C39.8751 216.917 39.9859 217.176 40.1414 217.405C40.297 217.633 40.4942 217.828 40.7219 217.977C40.9496 218.126 41.2033 218.227 41.4684 218.274L46.5937 219.153Z" fill="white"/>
<path d="M324.395 196.861L324.528 196.375L324.75 196.098L325.016 195.774C325.203 195.571 325.427 195.409 325.674 195.299C325.922 195.189 326.189 195.132 326.458 195.132C326.728 195.132 326.995 195.189 327.243 195.299C327.49 195.409 327.714 195.571 327.901 195.774L328.167 196.098L328.344 196.467C328.354 196.606 328.354 196.745 328.344 196.884C328.365 197.022 328.365 197.162 328.344 197.3C328.351 197.576 328.306 197.851 328.211 198.109C328.108 198.368 327.957 198.604 327.768 198.803C327.582 199.007 327.354 199.166 327.102 199.266C326.848 199.37 326.577 199.425 326.303 199.427H325.904L325.504 199.289L325.149 199.104C325.068 198.976 325.008 198.836 324.972 198.688C324.776 198.494 324.624 198.257 324.528 197.994C324.426 197.737 324.373 197.462 324.373 197.184C324.374 197.076 324.382 196.968 324.395 196.861Z" fill="white"/>
<path d="M320.312 188.328L320.446 187.911L320.623 187.541L320.889 187.125C321.076 186.922 321.3 186.761 321.547 186.65C321.795 186.54 322.062 186.483 322.332 186.483C322.601 186.483 322.868 186.54 323.116 186.65C323.363 186.761 323.587 186.922 323.774 187.125L324.04 187.449L324.217 187.819C324.227 187.957 324.227 188.096 324.217 188.235C324.238 188.373 324.238 188.513 324.217 188.651C324.225 188.928 324.179 189.203 324.084 189.461C323.981 189.72 323.83 189.955 323.641 190.154C323.455 190.359 323.227 190.517 322.975 190.617C322.721 190.722 322.45 190.777 322.176 190.779H321.777L321.377 190.64L321.022 190.455C320.906 190.38 320.801 190.286 320.712 190.178C320.516 189.984 320.364 189.747 320.268 189.484C320.241 189.236 320.256 188.986 320.312 188.744C320.303 188.605 320.303 188.466 320.312 188.328Z" fill="white"/>
<path d="M330.541 177.644L330.674 177.227L330.852 176.857L331.118 176.534C331.304 176.331 331.528 176.169 331.776 176.059C332.024 175.949 332.291 175.892 332.56 175.892C332.83 175.892 333.096 175.949 333.344 176.059C333.592 176.169 333.816 176.331 334.002 176.534L334.268 176.857L334.446 177.227C334.456 177.366 334.456 177.505 334.446 177.644C334.466 177.782 334.466 177.922 334.446 178.06C334.453 178.336 334.408 178.611 334.313 178.869C334.209 179.128 334.059 179.364 333.869 179.563C333.683 179.767 333.456 179.926 333.203 180.026C332.949 180.13 332.678 180.185 332.405 180.187H332.005L331.606 180.049L331.406 179.841C331.289 179.766 331.185 179.672 331.096 179.563C330.9 179.37 330.748 179.132 330.652 178.869C330.549 178.613 330.497 178.338 330.497 178.06C330.501 177.92 330.516 177.781 330.541 177.644Z" fill="white"/>
<path d="M338.75 186.177L338.883 185.761L339.061 185.391L339.327 185.067C339.514 184.864 339.737 184.703 339.985 184.592C340.233 184.482 340.5 184.425 340.769 184.425C341.039 184.425 341.306 184.482 341.553 184.592C341.801 184.703 342.025 184.864 342.212 185.067L342.5 185.414L342.677 185.784C342.687 185.922 342.687 186.061 342.677 186.2C342.698 186.338 342.698 186.478 342.677 186.616C342.684 186.893 342.639 187.168 342.544 187.426C342.441 187.685 342.29 187.92 342.101 188.119C341.915 188.324 341.687 188.482 341.435 188.582C341.181 188.687 340.91 188.742 340.636 188.744H340.237L339.837 188.605L339.482 188.42C339.366 188.345 339.261 188.251 339.172 188.142C338.976 187.949 338.824 187.712 338.728 187.449C338.626 187.192 338.573 186.917 338.573 186.639C338.619 186.48 338.678 186.325 338.75 186.177Z" fill="white"/>
<path d="M351.042 177.644L351.175 177.228L351.375 176.881L351.641 176.557C351.828 176.354 352.051 176.193 352.299 176.082C352.547 175.972 352.814 175.915 353.083 175.915C353.353 175.915 353.62 175.972 353.867 176.082C354.115 176.193 354.339 176.354 354.526 176.557L354.792 176.881L354.969 177.251C354.979 177.389 354.979 177.528 354.969 177.667C354.989 177.805 354.989 177.945 354.969 178.083C354.976 178.359 354.931 178.634 354.836 178.893C354.733 179.151 354.582 179.387 354.392 179.586C354.207 179.791 353.979 179.949 353.727 180.049C353.472 180.154 353.202 180.208 352.928 180.211H352.529L352.129 180.072L351.774 179.887C351.657 179.812 351.553 179.718 351.464 179.609C351.268 179.416 351.116 179.179 351.02 178.916C350.917 178.659 350.865 178.384 350.865 178.106C350.911 177.947 350.97 177.792 351.042 177.644Z" fill="white"/>
<path d="M339.128 220.471C339.05 220.118 339.06 219.75 339.157 219.402C339.254 219.054 339.435 218.737 339.682 218.482L359.939 197.346C360.185 197.086 360.491 196.896 360.828 196.795C361.164 196.694 361.52 196.685 361.861 196.768C362.202 196.852 362.517 197.026 362.775 197.273C363.033 197.52 363.225 197.832 363.334 198.179L373.563 229.883C373.688 230.26 373.708 230.667 373.622 231.055C373.536 231.444 373.347 231.8 373.077 232.082C372.806 232.364 372.464 232.562 372.091 232.651C371.718 232.741 371.328 232.719 370.967 232.589L340.57 222.021C340.219 221.92 339.9 221.723 339.646 221.451C339.392 221.178 339.213 220.84 339.128 220.471ZM355.613 222.784L364.044 213.973L362.935 210.504L352.263 221.627L355.613 222.784ZM365.508 218.506L359.962 224.287L368.282 227.177L365.508 218.506ZM347.936 220.124L361.493 205.972L360.494 202.827L344.963 219.014L347.936 220.124Z" fill="white"/>
<path d="M335.289 198.271L334.335 192.467L328.766 191.472C328.351 191.398 327.968 191.191 327.67 190.88C327.372 190.57 327.174 190.171 327.102 189.738L326.148 183.934L320.579 182.939C320.314 182.892 320.06 182.791 319.832 182.642C319.605 182.493 319.407 182.298 319.252 182.07C319.096 181.841 318.985 181.582 318.926 181.309C318.866 181.036 318.858 180.753 318.904 180.477C318.949 180.2 319.046 179.936 319.189 179.699C319.332 179.461 319.519 179.256 319.738 179.094C319.958 178.931 320.205 178.816 320.468 178.754C320.73 178.691 321.001 178.684 321.267 178.731L328.256 179.979C328.671 180.054 329.054 180.261 329.352 180.571C329.65 180.882 329.848 181.281 329.92 181.714L330.874 187.518L336.443 188.513C336.858 188.587 337.241 188.794 337.539 189.105C337.837 189.415 338.035 189.814 338.107 190.247L339.061 196.051L344.719 197.069C345.234 197.147 345.702 197.428 346.025 197.854C346.349 198.28 346.504 198.818 346.458 199.359C346.413 199.9 346.171 200.403 345.781 200.764C345.392 201.125 344.885 201.317 344.364 201.301H344.009L337.02 200.052C336.586 199.988 336.184 199.78 335.872 199.459C335.561 199.139 335.356 198.722 335.289 198.271Z" fill="white"/>
<path d="M312.769 200.699L318.671 198.387C319.128 198.205 319.633 198.201 320.093 198.375C320.554 198.549 320.938 198.89 321.178 199.335L323.397 203.474L327.657 201.809C328.114 201.628 328.619 201.624 329.079 201.798C329.539 201.972 329.924 202.312 330.164 202.758L332.382 206.874L336.642 205.209C336.895 205.112 337.162 205.067 337.431 205.078C337.699 205.089 337.963 205.154 338.208 205.271C338.452 205.388 338.671 205.554 338.854 205.76C339.036 205.965 339.178 206.206 339.272 206.469C339.365 206.732 339.408 207.011 339.397 207.291C339.387 207.571 339.324 207.846 339.212 208.1C339.099 208.355 338.94 208.584 338.743 208.774C338.546 208.964 338.315 209.112 338.062 209.209L332.161 211.522C331.703 211.703 331.198 211.708 330.738 211.534C330.278 211.36 329.893 211.019 329.653 210.574L327.435 206.434L323.175 208.099C322.717 208.281 322.212 208.285 321.752 208.111C321.292 207.937 320.907 207.596 320.667 207.151L318.449 203.012L314.189 204.677C313.937 204.776 313.668 204.822 313.399 204.812C313.13 204.803 312.866 204.738 312.62 204.622C312.375 204.506 312.154 204.341 311.97 204.136C311.787 203.931 311.643 203.691 311.548 203.428C311.454 203.165 311.41 202.886 311.419 202.605C311.428 202.325 311.489 202.049 311.601 201.794C311.712 201.538 311.87 201.308 312.067 201.116C312.264 200.924 312.494 200.775 312.747 200.676L312.769 200.699Z" fill="white"/>
<path d="M345.739 189.438L347.293 184.974L343.321 182.662C342.895 182.417 342.567 182.021 342.396 181.546C342.225 181.071 342.223 180.548 342.389 180.072L343.92 175.563L339.948 173.25C339.472 172.977 339.119 172.518 338.967 171.974C338.815 171.429 338.877 170.845 339.139 170.348C339.4 169.851 339.841 169.483 340.363 169.325C340.885 169.166 341.447 169.231 341.923 169.504L347.426 172.741C347.852 172.986 348.18 173.382 348.351 173.857C348.521 174.332 348.524 174.855 348.358 175.331L346.804 179.771L350.776 182.084C351.202 182.329 351.53 182.724 351.701 183.199C351.872 183.674 351.874 184.197 351.708 184.674L350.155 189.137L354.148 191.449C354.384 191.585 354.593 191.767 354.761 191.986C354.929 192.205 355.055 192.456 355.13 192.726C355.282 193.27 355.22 193.855 354.958 194.352C354.696 194.848 354.256 195.216 353.734 195.375C353.212 195.533 352.65 195.469 352.174 195.196L346.649 192.028C346.227 191.779 345.904 191.382 345.737 190.907C345.57 190.432 345.571 189.911 345.739 189.438Z" fill="white"/>
<path d="M361.248 186.362C361.506 186.439 361.747 186.569 361.957 186.743C362.167 186.917 362.342 187.133 362.472 187.378C362.602 187.623 362.684 187.892 362.714 188.17C362.744 188.448 362.721 188.729 362.646 188.998L361.803 192.028C361.679 192.467 361.422 192.853 361.07 193.128C360.718 193.403 360.29 193.553 359.851 193.554C359.659 193.583 359.465 193.583 359.274 193.554C359.016 193.477 358.775 193.347 358.565 193.173C358.355 192.998 358.18 192.783 358.05 192.538C357.92 192.293 357.838 192.024 357.808 191.746C357.778 191.468 357.801 191.186 357.876 190.918L358.719 187.888C358.786 187.613 358.905 187.355 359.069 187.128C359.233 186.902 359.439 186.712 359.675 186.569C359.911 186.427 360.171 186.335 360.442 186.3C360.712 186.264 360.986 186.285 361.248 186.362Z" fill="white"/>
<path d="M345.473 208.516C345.052 208.514 344.641 208.377 344.297 208.122L343.099 207.244C342.879 207.081 342.692 206.875 342.548 206.637C342.405 206.4 342.308 206.135 342.262 205.858C342.217 205.581 342.224 205.297 342.284 205.023C342.344 204.749 342.455 204.49 342.611 204.261C342.767 204.031 342.964 203.836 343.193 203.687C343.421 203.537 343.675 203.436 343.941 203.388C344.207 203.341 344.479 203.349 344.742 203.411C345.005 203.474 345.253 203.589 345.473 203.752L346.671 204.631C347.033 204.888 347.307 205.26 347.45 205.692C347.593 206.124 347.6 206.593 347.468 207.028C347.336 207.464 347.073 207.844 346.718 208.112C346.362 208.38 345.934 208.521 345.495 208.516H345.473Z" fill="white"/>
<path d="M353.927 197.578C354.309 197.976 354.523 198.517 354.523 199.081C354.523 199.644 354.309 200.185 353.927 200.584L353.083 201.463C352.897 201.673 352.672 201.843 352.421 201.96C352.17 202.078 351.899 202.142 351.624 202.148C351.349 202.153 351.076 202.101 350.821 201.994C350.565 201.887 350.334 201.728 350.139 201.525C349.945 201.322 349.791 201.081 349.689 200.815C349.586 200.549 349.536 200.264 349.542 199.977C349.547 199.691 349.608 199.408 349.721 199.147C349.834 198.885 349.997 198.651 350.199 198.456L351.042 197.578C351.425 197.179 351.944 196.956 352.484 196.956C353.025 196.956 353.544 197.179 353.927 197.578Z" fill="white"/>
<path d="M331.406 219.153H331.051C330.782 219.17 330.512 219.131 330.257 219.039C330.001 218.947 329.766 218.803 329.564 218.617C329.362 218.43 329.198 218.203 329.08 217.95C328.962 217.697 328.893 217.422 328.877 217.141C328.861 216.86 328.898 216.579 328.986 216.313C329.075 216.047 329.212 215.802 329.392 215.591C329.571 215.381 329.788 215.209 330.031 215.086C330.274 214.964 330.538 214.892 330.807 214.875L335.844 214.066C336.109 214.019 336.38 214.026 336.643 214.089C336.905 214.151 337.153 214.266 337.372 214.429C337.592 214.591 337.778 214.796 337.921 215.034C338.065 215.271 338.162 215.535 338.207 215.812C338.252 216.088 338.244 216.371 338.185 216.644C338.125 216.917 338.014 217.176 337.859 217.405C337.703 217.633 337.506 217.828 337.278 217.977C337.05 218.126 336.797 218.227 336.532 218.274L331.406 219.153Z" fill="white"/>
<defs>
<linearGradient id="paint0_linear_468_195" x1="34.0542" y1="9.21924" x2="49.9815" y2="59.7756" gradientUnits="userSpaceOnUse">
<stop stop-color="#FFC700"/>
<stop offset="1" stop-color="#F1FF51"/>
</linearGradient>
<linearGradient id="paint1_linear_468_195" x1="190" y1="97.9395" x2="190" y2="149.25" gradientUnits="userSpaceOnUse">
<stop stop-color="#F42121"/>
<stop offset="1" stop-color="#C00000"/>
</linearGradient>
<clipPath id="clip0_468_195">
<rect width="60" height="53" fill="white" transform="translate(5.42358 18.2391) rotate(-17.4865)"/>
</clipPath>
<clipPath id="clip1_468_195">
<rect width="60" height="60" fill="white" transform="matrix(-0.894724 -0.446619 -0.446619 0.894724 373.481 33.7971)"/>
</clipPath>
</defs>
</svg>
