<svg width="50" height="50" viewBox="0 0 50 50" fill="none" xmlns="http://www.w3.org/2000/svg">
<path d="M21.2793 10.3418L33.2715 22.334C33.9746 23.0371 34.375 24.0039 34.375 25C34.375 25.9961 33.9746 26.9629 33.2715 27.666L21.2793 39.6582C20.6543 40.2832 19.8145 40.625 18.9355 40.625C17.1094 40.625 15.625 39.1406 15.625 37.3145V31.25H3.125C1.39648 31.25 0 29.8535 0 28.125V21.875C0 20.1465 1.39648 18.75 3.125 18.75H15.625V12.6855C15.625 10.8594 17.1094 9.375 18.9355 9.375C19.8145 9.375 20.6543 9.72656 21.2793 10.3418ZM34.375 40.625H40.625C42.3535 40.625 43.75 39.2285 43.75 37.5V12.5C43.75 10.7715 42.3535 9.375 40.625 9.375H34.375C32.6465 9.375 31.25 7.97852 31.25 6.25C31.25 4.52148 32.6465 3.125 34.375 3.125H40.625C45.8008 3.125 50 7.32422 50 12.5V37.5C50 42.6758 45.8008 46.875 40.625 46.875H34.375C32.6465 46.875 31.25 45.4785 31.25 43.75C31.25 42.0215 32.6465 40.625 34.375 40.625Z" fill="#444444"/>
</svg>
