<svg width="21" height="21" viewBox="0 0 21 21" fill="none" xmlns="http://www.w3.org/2000/svg">
<g clip-path="url(#clip0_67_34)">
<path d="M11.8717 1.43759C11.6913 1.07047 11.31 0.836853 10.8912 0.836853C10.4724 0.836853 10.0945 1.07047 9.91068 1.43759L7.72151 5.85299L2.8325 6.56052C2.42395 6.62059 2.08349 6.90093 1.95752 7.28474C1.83155 7.66854 1.93368 8.09239 2.22648 8.37607L5.77408 11.8169L4.93655 16.6796C4.86845 17.08 5.03869 17.4872 5.37574 17.7242C5.7128 17.9611 6.1588 17.9912 6.5265 17.8009L10.8946 15.5148L15.2627 17.8009C15.6304 17.9912 16.0764 17.9645 16.4135 17.7242C16.7505 17.4839 16.9208 17.08 16.8527 16.6796L16.0117 11.8169L19.5593 8.37607C19.8521 8.09239 19.9577 7.66854 19.8283 7.28474C19.6989 6.90093 19.3619 6.62059 18.9533 6.56052L14.0609 5.85299L11.8717 1.43759Z" fill="#FFC700"/>
</g>
<defs>
<clipPath id="clip0_67_34">
<rect width="19.9758" height="20.1053" fill="white" transform="translate(0.905731 0.836853)"/>
</clipPath>
</defs>
</svg>
