<svg width="35" height="31" viewBox="0 0 35 31" fill="none" xmlns="http://www.w3.org/2000/svg">
<g clip-path="url(#clip0_25_27)">
<path d="M3.875 0C1.7377 0 0 1.7377 0 3.875V27.125C0 29.2623 1.7377 31 3.875 31H19.375C21.5123 31 23.25 29.2623 23.25 27.125V25.9564C23.0865 26.023 22.923 26.0775 22.7535 26.1199L19.1146 27.0281C18.933 27.0705 18.7514 27.1008 18.5697 27.1129C18.5152 27.1189 18.4607 27.125 18.4062 27.125H14.5312C14.1619 27.125 13.8289 26.9191 13.6654 26.5922L13.1326 25.5205C13.0297 25.3146 12.8238 25.1875 12.5998 25.1875C12.3758 25.1875 12.1639 25.3146 12.067 25.5205L11.5342 26.5922C11.3586 26.9494 10.9771 27.1613 10.5836 27.125C10.19 27.0887 9.85098 26.8162 9.74199 26.4408L8.71875 23.0684L8.12539 25.0543C7.75605 26.2834 6.62383 27.125 5.34023 27.125H4.84375C4.31094 27.125 3.875 26.6891 3.875 26.1562C3.875 25.6234 4.31094 25.1875 4.84375 25.1875H5.34023C5.77012 25.1875 6.14551 24.909 6.2666 24.4973L7.16875 21.5002C7.37461 20.816 8.0043 20.3438 8.71875 20.3438C9.4332 20.3438 10.0629 20.816 10.2688 21.5002L10.9711 23.8373C11.4191 23.4619 11.9883 23.25 12.5938 23.25C13.5564 23.25 14.4344 23.7949 14.8643 24.6547L15.1307 25.1875H15.6695C15.4818 24.6547 15.4455 24.0734 15.5848 23.5043L16.493 19.8654C16.6625 19.1812 17.0137 18.5637 17.5102 18.0672L23.25 12.3273V9.6875H15.5C14.4283 9.6875 13.5625 8.82168 13.5625 7.75V0H3.875ZM15.5 0V7.75H23.25L15.5 0ZM33.2887 8.4584C32.3441 7.51387 30.8123 7.51387 29.8617 8.4584L28.0816 10.2385L32.3805 14.5373L34.1605 12.7572C35.1051 11.8127 35.1051 10.2809 34.1605 9.33027L33.2887 8.4584ZM18.8846 19.4355C18.6363 19.6838 18.4607 19.9926 18.376 20.3377L17.4678 23.9766C17.383 24.3096 17.4799 24.6547 17.7221 24.8969C17.9643 25.1391 18.3094 25.2359 18.6424 25.1512L22.2812 24.243C22.6203 24.1582 22.9352 23.9826 23.1834 23.7344L31.0061 15.9057L26.7072 11.6068L18.8846 19.4355Z" fill="#00ADB5"/>
</g>
<defs>
<clipPath id="clip0_25_27">
<rect width="34.875" height="31" fill="white"/>
</clipPath>
</defs>
</svg>
