<svg width="45" height="46" viewBox="0 0 45 46" fill="none" xmlns="http://www.w3.org/2000/svg">
<g clip-path="url(#clip0_52_27)">
<path d="M30.2256 19.4517L21.5596 28.1177L27.3076 33.8657C28.002 34.5601 28.2832 35.5708 28.0459 36.5288C27.8086 37.4868 27.0967 38.2515 26.1563 38.5415L3.65627 45.5728C2.65432 45.8804 1.56448 45.6167 0.826197 44.8784C0.0879157 44.1401 -0.184545 43.0415 0.131861 42.0483L7.16311 19.5483C7.45315 18.6079 8.2178 17.8872 9.17581 17.6587C10.1338 17.4302 11.1446 17.7026 11.8389 18.397L17.5781 24.1362L26.2442 15.4702C24.9873 14.187 24.9961 12.1304 26.2705 10.856L34.6553 2.47119C37.0196 0.106934 40.8516 0.106934 43.2246 2.47119C45.5977 4.83545 45.5889 8.66748 43.2246 11.0405L34.8399 19.4253C33.5655 20.6997 31.5088 20.7085 30.2256 19.4517Z" fill="white"/>
</g>
<defs>
<clipPath id="clip0_52_27">
<rect width="45" height="45" fill="white" transform="translate(0 0.695679)"/>
</clipPath>
</defs>
</svg>
