<svg width="31" height="31" viewBox="0 0 31 31" fill="none" xmlns="http://www.w3.org/2000/svg">
<g clip-path="url(#clip0_9_29)">
<path d="M15.5 17.4375C17.8124 17.4375 20.03 16.5189 21.6651 14.8838C23.3002 13.2488 24.2188 11.0311 24.2188 8.71875C24.2188 6.40639 23.3002 4.18875 21.6651 2.55366C20.03 0.91858 17.8124 0 15.5 0C13.1876 0 10.97 0.91858 9.33491 2.55366C7.69983 4.18875 6.78125 6.40639 6.78125 8.71875C6.78125 11.0311 7.69983 13.2488 9.33491 14.8838C10.97 16.5189 13.1876 17.4375 15.5 17.4375ZM9.76621 19.375C4.37149 19.375 0 23.7465 0 29.1412C0 30.1705 0.835547 31 1.85879 31H29.1412C30.1705 31 31 30.1645 31 29.1412C31 23.7465 26.6285 19.375 21.2338 19.375H9.76621Z" fill="#00ABD5"/>
</g>
<defs>
<clipPath id="clip0_9_29">
<rect width="31" height="31" fill="white"/>
</clipPath>
</defs>
</svg>
