<svg width="36" height="30" viewBox="0 0 36 30" fill="none" xmlns="http://www.w3.org/2000/svg">
<g clip-path="url(#clip0_87_393)" filter="url(#filter0_d_87_393)">
<path d="M8.2 5.5C8.2 4.04131 8.79 2.64236 9.8402 1.61091C10.8904 0.579463 12.3148 0 13.8 0C15.2852 0 16.7096 0.579463 17.7598 1.61091C18.81 2.64236 19.4 4.04131 19.4 5.5C19.4 6.95869 18.81 8.35764 17.7598 9.38909C16.7096 10.4205 15.2852 11 13.8 11C12.3148 11 10.8904 10.4205 9.8402 9.38909C8.79 8.35764 8.2 6.95869 8.2 5.5ZM4 20.7238C4 16.4914 7.49125 13.0625 11.8006 13.0625H15.7994C20.1087 13.0625 23.6 16.4914 23.6 20.7238C23.6 21.4285 23.0181 22 22.3006 22H5.29938C4.58188 22 4 21.4285 4 20.7238ZM30.6569 22H24.6237C24.86 21.5961 25 21.1277 25 20.625V20.2812C25 17.673 23.8144 15.3313 21.9463 13.7586C22.0513 13.7543 22.1519 13.75 22.2569 13.75H24.9431C28.8412 13.75 32 16.8523 32 20.6809C32 21.4113 31.3962 22 30.6569 22ZM22.9 11C21.5437 11 20.3188 10.4586 19.4306 9.58633C20.2925 8.44336 20.8 7.02969 20.8 5.5C20.8 4.34844 20.5112 3.26133 19.9994 2.30742C20.8131 1.72305 21.815 1.375 22.9 1.375C25.6081 1.375 27.8 3.52773 27.8 6.1875C27.8 8.84727 25.6081 11 22.9 11Z" fill="#1A82E2"/>
</g>
<defs>
<filter id="filter0_d_87_393" x="0" y="0" width="36" height="30" filterUnits="userSpaceOnUse" color-interpolation-filters="sRGB">
<feFlood flood-opacity="0" result="BackgroundImageFix"/>
<feColorMatrix in="SourceAlpha" type="matrix" values="0 0 0 0 0 0 0 0 0 0 0 0 0 0 0 0 0 0 127 0" result="hardAlpha"/>
<feOffset dy="4"/>
<feGaussianBlur stdDeviation="2"/>
<feComposite in2="hardAlpha" operator="out"/>
<feColorMatrix type="matrix" values="0 0 0 0 0 0 0 0 0 0 0 0 0 0 0 0 0 0 0.25 0"/>
<feBlend mode="normal" in2="BackgroundImageFix" result="effect1_dropShadow_87_393"/>
<feBlend mode="normal" in="SourceGraphic" in2="effect1_dropShadow_87_393" result="shape"/>
</filter>
<clipPath id="clip0_87_393">
<rect width="28" height="22" fill="white" transform="translate(4)"/>
</clipPath>
</defs>
</svg>
