<svg width="75" height="61" viewBox="0 0 75 61" fill="none" xmlns="http://www.w3.org/2000/svg">
<g clip-path="url(#clip0_32_4)">
<path d="M16.875 0C19.3614 0 21.746 1.00418 23.5041 2.79164C25.2623 4.57909 26.25 7.00341 26.25 9.53125C26.25 12.0591 25.2623 14.4834 23.5041 16.2709C21.746 18.0583 19.3614 19.0625 16.875 19.0625C14.3886 19.0625 12.004 18.0583 10.2459 16.2709C8.48772 14.4834 7.5 12.0591 7.5 9.53125C7.5 7.00341 8.48772 4.57909 10.2459 2.79164C12.004 1.00418 14.3886 0 16.875 0ZM60 0C62.4864 0 64.871 1.00418 66.6291 2.79164C68.3873 4.57909 69.375 7.00341 69.375 9.53125C69.375 12.0591 68.3873 14.4834 66.6291 16.2709C64.871 18.0583 62.4864 19.0625 60 19.0625C57.5136 19.0625 55.129 18.0583 53.3709 16.2709C51.6127 14.4834 50.625 12.0591 50.625 9.53125C50.625 7.00341 51.6127 4.57909 53.3709 2.79164C55.129 1.00418 57.5136 0 60 0ZM0 35.5873C0 28.5699 5.60156 22.875 12.5039 22.875H17.5078C19.3711 22.875 21.1406 23.292 22.7344 24.0307C22.582 24.8885 22.5117 25.782 22.5117 26.6875C22.5117 31.2387 24.4805 35.3252 27.5859 38.125C27.5625 38.125 27.5391 38.125 27.5039 38.125H2.49609C1.125 38.125 0 36.9813 0 35.5873ZM47.4961 38.125C47.4727 38.125 47.4492 38.125 47.4141 38.125C50.5312 35.3252 52.4883 31.2387 52.4883 26.6875C52.4883 25.782 52.4062 24.9004 52.2656 24.0307C53.8594 23.2801 55.6289 22.875 57.4922 22.875H62.4961C69.3984 22.875 75 28.5699 75 35.5873C75 36.9932 73.875 38.125 72.5039 38.125H47.4961ZM26.25 26.6875C26.25 23.6541 27.4353 20.7449 29.545 18.6C31.6548 16.455 34.5163 15.25 37.5 15.25C40.4837 15.25 43.3452 16.455 45.455 18.6C47.5647 20.7449 48.75 23.6541 48.75 26.6875C48.75 29.7209 47.5647 32.6301 45.455 34.775C43.3452 36.92 40.4837 38.125 37.5 38.125C34.5163 38.125 31.6548 36.92 29.545 34.775C27.4353 32.6301 26.25 29.7209 26.25 26.6875ZM15 57.8189C15 49.0502 21.9961 41.9375 30.6211 41.9375H44.3789C53.0039 41.9375 60 49.0502 60 57.8189C60 59.5703 58.6055 61 56.8711 61H18.1289C16.4062 61 15 59.5822 15 57.8189Z" fill="white"/>
</g>
<defs>
<clipPath id="clip0_32_4">
<rect width="75" height="61" fill="white"/>
</clipPath>
</defs>
</svg>
