<svg width="44" height="45" viewBox="0 0 44 45" fill="none" xmlns="http://www.w3.org/2000/svg">
<g clip-path="url(#clip0_65_19)">
<path d="M30.9375 28.125C38.707 28.125 45 21.832 45 14.0625C45 12.7178 44.8066 11.417 44.4551 10.1777C44.1826 9.22852 43.0137 9.01758 42.3193 9.71191L35.5693 16.4619C35.3057 16.7256 34.9453 16.875 34.5762 16.875H29.5312C28.7578 16.875 28.125 16.2422 28.125 15.4688V10.4238C28.125 10.0547 28.2744 9.69434 28.5381 9.43066L35.2881 2.68066C35.9824 1.98633 35.7627 0.817383 34.8223 0.544922C33.583 0.193359 32.2822 0 30.9375 0C23.168 0 16.875 6.29297 16.875 14.0625C16.875 15.7412 17.1738 17.3584 17.71 18.8525L1.74902 34.8135C0.632812 35.9297 0 37.4502 0 39.0322C0 42.3281 2.67188 45 5.96777 45C7.5498 45 9.07031 44.3672 10.1865 43.251L26.1475 27.29C27.6416 27.835 29.2588 28.125 30.9375 28.125ZM7.03125 35.8594C7.59069 35.8594 8.12722 36.0816 8.5228 36.4772C8.91839 36.8728 9.14062 37.4093 9.14062 37.9688C9.14062 38.5282 8.91839 39.0647 8.5228 39.4603C8.12722 39.8559 7.59069 40.0781 7.03125 40.0781C6.47181 40.0781 5.93528 39.8559 5.5397 39.4603C5.14411 39.0647 4.92188 38.5282 4.92188 37.9688C4.92188 37.4093 5.14411 36.8728 5.5397 36.4772C5.93528 36.0816 6.47181 35.8594 7.03125 35.8594Z" fill="white"/>
</g>
<defs>
<clipPath id="clip0_65_19">
<rect width="45" height="45" fill="white"/>
</clipPath>
</defs>
</svg>
